<svg width="402" height="402" viewBox="0 0 402 402" fill="none" xmlns="http://www.w3.org/2000/svg">
<path d="M331.81 379.571H267.426C255.23 379.571 243.533 374.73 234.905 366.11C226.277 357.491 221.423 345.799 221.411 333.603V269.22C221.411 257.016 226.259 245.311 234.889 236.682C243.518 228.052 255.222 223.204 267.426 223.204H331.81C344.005 223.217 355.698 228.07 364.317 236.699C372.936 245.327 377.778 257.024 377.778 269.22V333.603C377.779 339.64 376.591 345.618 374.281 351.196C371.972 356.773 368.586 361.841 364.317 366.11C360.048 370.379 354.98 373.765 349.402 376.075C343.825 378.384 337.847 379.572 331.81 379.571Z" fill="#F4CA1C"/>
<path d="M217.796 288.377H79.5531C61.3808 288.347 43.9614 281.115 31.1116 268.265C18.2619 255.415 11.0298 237.996 11 219.824V81.5531C11.0298 63.3808 18.2619 45.9614 31.1116 33.1116C43.9614 20.2619 61.3808 13.0298 79.5531 13H217.796C235.969 13.0273 253.389 20.2586 266.24 33.1089C279.09 45.9592 286.321 63.3801 286.349 81.5531V130.01C286.349 134.493 284.568 138.792 281.398 141.962C278.228 145.132 273.928 146.913 269.445 146.913C264.962 146.913 260.663 145.132 257.493 141.962C254.323 138.792 252.542 134.493 252.542 130.01V81.5531C252.522 72.3439 248.855 63.5177 242.343 57.0058C235.831 50.494 227.005 46.8268 217.796 46.807H79.5531C70.344 46.8268 61.5177 50.494 55.0058 57.0058C48.494 63.5177 44.8268 72.3439 44.807 81.5531V219.796C44.8268 229.005 48.494 237.831 55.0058 244.343C61.5177 250.855 70.344 254.522 79.5531 254.542H217.796C227.005 254.522 235.831 250.855 242.343 244.343C248.855 237.831 252.522 229.005 252.542 219.796V187.209C252.542 182.726 254.323 178.427 257.493 175.257C260.663 172.087 264.962 170.306 269.445 170.306C273.928 170.306 278.228 172.087 281.398 175.257C284.568 178.427 286.349 182.726 286.349 187.209V219.796C286.329 237.973 279.101 255.402 266.25 268.258C253.399 281.114 235.973 288.349 217.796 288.377Z" fill="#595BB3"/>
<path d="M322.447 388.558H184.195C166.022 388.531 148.601 381.3 135.751 368.449C122.901 355.599 115.669 338.178 115.642 320.005V273.342C115.642 268.859 117.423 264.56 120.593 261.39C123.763 258.219 128.063 256.439 132.546 256.439C137.029 256.439 141.328 258.219 144.498 261.39C147.668 264.56 149.449 268.859 149.449 273.342V319.93C149.469 329.139 153.136 337.965 159.648 344.477C166.16 350.989 174.986 354.656 184.195 354.676H322.447C331.656 354.656 340.482 350.989 346.994 344.477C353.506 337.965 357.173 329.139 357.193 319.93V181.688C357.173 172.478 353.506 163.652 346.994 157.14C340.482 150.628 331.656 146.961 322.447 146.941H184.195C174.986 146.961 166.16 150.628 159.648 157.14C153.136 163.652 149.469 172.478 149.449 181.688V213.616C149.449 218.099 147.668 222.399 144.498 225.569C141.328 228.739 137.029 230.52 132.546 230.52C128.063 230.52 123.763 228.739 120.593 225.569C117.423 222.399 115.642 218.099 115.642 213.616V181.688C115.669 163.515 122.901 146.094 135.751 133.243C148.601 120.393 166.022 113.162 184.195 113.134H322.447C340.619 113.164 358.039 120.396 370.888 133.246C383.738 146.096 390.97 163.515 391 181.688V319.93C390.99 338.115 383.767 355.554 370.915 368.42C358.063 381.286 340.632 388.528 322.447 388.558Z" fill="#595BB3"/>
</svg>
