<svg width="240" height="76" viewBox="0 0 240 76" fill="none" xmlns="http://www.w3.org/2000/svg">
<rect width="240" height="76" fill="white"/>
<g clip-path="url(#clip0_2618_29781)">
<path d="M39.3616 40.9447C39.4659 40.9569 39.5708 40.9633 39.6758 40.9639H45.5385C45.6422 40.9632 45.7458 40.9568 45.8489 40.9447C46.3703 40.8705 46.8504 40.6195 47.2089 40.2337C47.5674 39.8479 47.7826 39.3507 47.8185 38.8253C47.8544 38.2998 47.7088 37.778 47.4061 37.347C47.1034 36.9161 46.6619 36.6021 46.1554 36.4577C46.0558 36.4309 45.9523 36.4155 45.8489 36.3925L45.5385 36.3734H39.6758C39.466 36.3723 39.2571 36.4007 39.0551 36.4577C38.8534 36.5152 38.6602 36.5989 38.4803 36.7067C38.0762 36.954 37.7584 37.3201 37.5702 37.7549C37.3821 38.1897 37.3329 38.6721 37.4294 39.1359C37.5258 39.5998 37.7632 40.0225 38.1091 40.3462C38.455 40.67 38.8925 40.879 39.3616 40.9447Z" fill="#FF9305"/>
<path d="M25.981 22.5713C26.0845 22.5713 26.1879 22.5713 26.2914 22.5943H32.154C32.2575 22.5943 32.3648 22.5943 32.4682 22.5713C32.6758 22.5441 32.8783 22.4873 33.0698 22.4027C33.5038 22.2129 33.8686 21.8936 34.1143 21.4885C34.3599 21.0834 34.4744 20.6123 34.4421 20.1397C34.4098 19.6671 34.2323 19.2159 33.9339 18.848C33.6354 18.4801 33.2306 18.2134 32.7748 18.0843C32.6752 18.0575 32.5717 18.0422 32.4682 18.0192H32.154H26.2914C26.0828 18.0184 25.8752 18.0468 25.6745 18.1035C25.4728 18.161 25.2796 18.2447 25.0997 18.3525C24.6956 18.5998 24.3777 18.9659 24.1896 19.4007C24.0015 19.8355 23.9523 20.3179 24.0488 20.7817C24.1452 21.2456 24.3826 21.6683 24.7285 21.992C25.0744 22.3158 25.5118 22.5248 25.981 22.5905V22.5713Z" fill="#FF9305"/>
<path d="M31.1233 36.4577C31.0236 36.4309 30.9202 36.4155 30.8167 36.3925L30.5064 36.3734H27.3375C27.1276 36.3723 26.9187 36.4007 26.7167 36.4577C26.5151 36.5152 26.3218 36.5989 26.142 36.7067C25.7378 36.954 25.42 37.3201 25.2319 37.7549C25.0437 38.1897 24.9945 38.6721 25.091 39.1359C25.1875 39.5998 25.4249 40.0225 25.7707 40.3462C26.1166 40.67 26.5541 40.879 27.0233 40.9447C27.1276 40.9569 27.2325 40.9633 27.3375 40.9639H30.5064C30.6101 40.9632 30.7137 40.9568 30.8167 40.9447C31.0251 40.9156 31.2287 40.8589 31.4222 40.7761C31.8561 40.5859 32.2207 40.2663 32.466 39.8609C32.7114 39.4556 32.8255 38.9844 32.7928 38.5117C32.7601 38.039 32.5821 37.588 32.2833 37.2203C31.9844 36.8527 31.5793 36.5863 31.1233 36.4577Z" fill="#FF9305"/>
<path d="M42.5803 53.4938C42.4795 53.4662 42.3771 53.4445 42.2738 53.4287L41.9596 53.4057H38.7907C38.5807 53.4066 38.3719 53.4362 38.17 53.4938C37.9683 53.5481 37.7759 53.632 37.599 53.7429C37.2035 53.9931 36.8938 54.358 36.7112 54.789C36.5286 55.2199 36.4819 55.6962 36.5773 56.1544C36.6727 56.6126 36.9056 57.0307 37.245 57.353C37.5844 57.6753 38.014 57.8863 38.4765 57.9579C38.5838 57.9579 38.6872 57.9579 38.7907 57.9809H41.9596C42.063 57.9809 42.1703 57.9809 42.2738 57.9579C42.4813 57.9306 42.6839 57.8738 42.8754 57.7893C43.308 57.5987 43.6714 57.2794 43.916 56.8748C44.1607 56.4702 44.2746 56.0001 44.2423 55.5284C44.2101 55.0567 44.0332 54.6065 43.7358 54.239C43.4384 53.8715 43.0349 53.6046 42.5803 53.4747V53.4938Z" fill="#FF9305"/>
<path d="M98.306 28.8516C98.306 28.8325 98.306 28.8133 98.306 28.7942C98.306 28.775 98.306 28.6792 98.306 28.6256C98.2516 28.2695 98.0929 27.9375 97.85 27.6714C97.7617 27.5731 97.6598 27.488 97.5473 27.4185L97.463 27.3611L97.4324 27.3419L81.6416 18.2184C81.5611 18.1801 81.4807 18.1341 81.4002 18.1035C81.2336 18.0374 81.0578 17.9973 80.8791 17.9847H41.9673C41.7575 17.9843 41.5486 18.0127 41.3465 18.069C41.1461 18.1265 40.9541 18.2103 40.7756 18.318C40.3715 18.5653 40.0536 18.9314 39.8655 19.3662C39.6774 19.801 39.6282 20.2834 39.7247 20.7472C39.8211 21.2111 40.0585 21.6338 40.4044 21.9576C40.7503 22.2813 41.1877 22.4903 41.6569 22.556C41.7604 22.556 41.8638 22.556 41.9673 22.579H52.635L53.0182 22.6135C53.0948 22.6135 53.1753 22.6403 53.2519 22.6633C53.7077 22.7924 54.1125 23.0591 54.411 23.427C54.7094 23.7949 54.8869 24.246 54.9192 24.7187C54.9515 25.1913 54.837 25.6624 54.5914 26.0675C54.3457 26.4725 53.981 26.7918 53.5469 26.9817C53.3542 27.0628 53.1521 27.1194 52.9454 27.1503C52.8419 27.1503 52.7346 27.1503 52.6311 27.1695H26.2915C26.0827 27.17 25.8751 27.1996 25.6745 27.2576C25.4717 27.3118 25.278 27.3957 25.0998 27.5067C24.6971 27.7545 24.3806 28.1204 24.1935 28.5547C24.0063 28.9889 23.9576 29.4702 24.054 29.9331C24.1503 30.396 24.3871 30.818 24.7319 31.1414C25.0768 31.4649 25.513 31.6742 25.9811 31.7408C26.0845 31.7408 26.188 31.7408 26.2915 31.7638H58.0033L58.3865 31.7983L58.6202 31.8481C59.076 31.9772 59.4808 32.2439 59.7793 32.6118C60.0777 32.9797 60.2552 33.4308 60.2875 33.9035C60.3198 34.3761 60.2053 34.8472 59.9597 35.2522C59.7141 35.6573 59.3493 35.9766 58.9153 36.1665C58.7238 36.251 58.5212 36.3078 58.3137 36.3351C58.2102 36.3351 58.1029 36.3351 57.9995 36.3581H53.3094C53.0995 36.357 52.8906 36.3854 52.6886 36.4424C52.487 36.4999 52.2937 36.5836 52.1139 36.6915C51.7097 36.9387 51.3919 37.3048 51.2038 37.7396C51.0156 38.1745 50.9664 38.6568 51.0629 39.1206C51.1594 39.5845 51.3968 40.0072 51.7426 40.331C52.0885 40.6547 52.526 40.8637 52.9952 40.9294C53.0995 40.9416 53.2044 40.948 53.3094 40.9486H64.935C65.4248 40.9486 65.8946 40.754 66.241 40.4076C66.5873 40.0613 66.7819 39.5915 66.7819 39.1016V32.5876C66.7815 32.5265 66.7973 32.4664 66.8278 32.4134C66.8582 32.3604 66.9022 32.3164 66.9552 32.286C67.0082 32.2556 67.0684 32.2398 67.1295 32.2403C67.1906 32.2408 67.2505 32.2575 67.303 32.2887L75.4226 36.9942C76.4983 37.6152 77.391 38.5091 78.0107 39.5856C78.6303 40.662 78.9549 41.883 78.9517 43.125V47.2327C78.952 47.8293 78.7954 48.4155 78.4974 48.9324C78.1994 49.4492 77.7706 49.8785 77.2541 50.1772C76.7377 50.4758 76.1517 50.6332 75.5551 50.6336C74.9585 50.634 74.3723 50.4773 73.8554 50.1793L67.1728 46.3131C67.0596 46.2485 66.9612 46.161 66.884 46.056C66.8067 45.9511 66.7524 45.8311 66.7245 45.7038C66.6387 45.288 66.4117 44.9148 66.082 44.6473C65.7524 44.3798 65.3404 44.2346 64.9158 44.2362H35.8518C35.642 44.2359 35.4331 44.2642 35.231 44.3205C35.0306 44.3781 34.8386 44.4618 34.6601 44.5696C34.256 44.8166 33.9381 45.1824 33.7498 45.6169C33.5615 46.0515 33.512 46.5335 33.608 46.9973C33.704 47.461 33.9409 47.8838 34.2863 48.2078C34.6316 48.5318 35.0686 48.7413 35.5375 48.8076C35.641 48.8076 35.7483 48.8076 35.8518 48.8305H55.459L55.8422 48.865C55.9188 48.865 55.9993 48.8919 56.0759 48.9149C56.5317 49.0439 56.9365 49.3107 57.235 49.6786C57.5334 50.0465 57.7109 50.4976 57.7432 50.9702C57.7755 51.4429 57.661 51.9139 57.4154 52.319C57.1698 52.7241 56.805 53.0434 56.371 53.2333C56.1783 53.3143 55.9762 53.371 55.7694 53.4019C55.6659 53.4019 55.5586 53.4019 55.4552 53.421H49.6692C49.4604 53.4215 49.2528 53.4512 49.0523 53.5092C48.8494 53.5634 48.6557 53.6473 48.4775 53.7582C48.0819 54.0087 47.7722 54.3739 47.5899 54.8051C47.4075 55.2363 47.3611 55.713 47.4569 56.1712C47.5528 56.6295 47.7862 57.0476 48.1261 57.3696C48.4659 57.6916 48.896 57.9022 49.3588 57.9732C49.4623 57.9732 49.5657 57.9732 49.6692 57.9962H80.8982L81.04 57.977C81.1708 57.9571 81.2992 57.9237 81.4232 57.8774L81.5496 57.8161H81.5688C81.7041 57.7575 81.8326 57.6843 81.952 57.5977L97.4324 48.662C97.5052 48.6121 97.5818 48.5662 97.6508 48.5125C97.9312 48.286 98.139 47.9823 98.2485 47.6389C98.3008 47.4675 98.3266 47.2892 98.3252 47.1101V28.8516H98.306ZM81.3542 22.2035L92.4664 28.6217C92.5133 28.649 92.5522 28.6882 92.5793 28.7352C92.6063 28.7823 92.6206 28.8357 92.6206 28.8899C92.6206 28.9442 92.6063 28.9976 92.5793 29.0446C92.5522 29.0917 92.5133 29.1309 92.4664 29.1582L90.2861 30.4188C90.1025 30.5244 89.8944 30.5799 89.6826 30.5799C89.4708 30.5799 89.2627 30.5244 89.0791 30.4188L78.0167 24.0312C77.9634 24.0007 77.919 23.9567 77.8882 23.9035C77.8573 23.8504 77.8411 23.79 77.8411 23.7285C77.8411 23.6671 77.8573 23.6067 77.8882 23.5535C77.919 23.5004 77.9634 23.4563 78.0167 23.4258L80.1319 22.2035C80.3181 22.0973 80.5287 22.0415 80.743 22.0415C80.9574 22.0415 81.168 22.0973 81.3542 22.2035ZM80.1319 35.5802L69.0695 29.1927C69.0171 29.1614 68.9737 29.117 68.9436 29.064C68.9135 29.0109 68.8976 28.951 68.8976 28.8899C68.8976 28.8289 68.9135 28.769 68.9436 28.7159C68.9737 28.6628 69.0171 28.6185 69.0695 28.5872L71.1885 27.3687C71.3736 27.2614 71.5838 27.2049 71.7977 27.2049C72.0117 27.2049 72.2219 27.2614 72.407 27.3687L83.5192 33.7831C83.566 33.811 83.6048 33.8505 83.6318 33.8979C83.6587 33.9452 83.6729 33.9988 83.6729 34.0533C83.6729 34.1078 83.6587 34.1613 83.6318 34.2087C83.6048 34.256 83.566 34.2956 83.5192 34.3234L81.335 35.5802C81.1519 35.6851 80.9445 35.7403 80.7335 35.7403C80.5224 35.7403 80.315 35.6851 80.1319 35.5802ZM94.7195 45.5927C94.7194 45.7379 94.6812 45.8806 94.6085 46.0064C94.5359 46.1322 94.4314 46.2366 94.3056 46.3092L83.7721 52.3941C83.6464 52.4658 83.5041 52.5033 83.3594 52.5028C83.2146 52.5023 83.0726 52.4639 82.9474 52.3914C82.8221 52.3189 82.7181 52.2148 82.6456 52.0896C82.5732 51.9643 82.5348 51.8223 82.5344 51.6776V39.5078C82.5339 39.363 82.572 39.2206 82.6447 39.0954C82.7175 38.9701 82.8222 38.8665 82.9482 38.7951L85.7876 37.1551C85.7876 39.2664 85.7876 42.2744 85.7876 43.7803C85.7883 43.8759 85.8141 43.9697 85.8623 44.0522C85.9105 44.1348 85.9795 44.2034 86.0625 44.251C86.1454 44.2987 86.2393 44.3238 86.3349 44.3239C86.4306 44.324 86.5246 44.2991 86.6076 44.2516L91.0295 41.7341C91.1643 41.6567 91.2765 41.5451 91.3545 41.4105C91.4325 41.276 91.4737 41.1233 91.4739 40.9677V33.8713L93.4856 32.7217C93.6113 32.65 93.7536 32.6126 93.8983 32.613C94.043 32.6135 94.1851 32.6519 94.3103 32.7244C94.4356 32.7969 94.5396 32.901 94.6121 33.0262C94.6845 33.1515 94.7229 33.2936 94.7233 33.4383L94.7195 45.5927Z" fill="#7366FF"/>
</g>
<path d="M105.229 35.6667C104.699 35.6667 104.178 35.5954 103.664 35.453C103.15 35.3105 102.699 35.1126 102.31 34.8594L102.859 32.7936C103.232 33.0548 103.637 33.2725 104.073 33.4466C104.509 33.6128 104.925 33.6959 105.322 33.6959C105.882 33.6959 106.163 33.5099 106.163 33.1379C106.163 33.0113 106.124 32.9084 106.046 32.8292C105.968 32.7422 105.84 32.6591 105.661 32.5799C105.489 32.5008 105.194 32.382 104.773 32.2237C104.003 31.9309 103.431 31.5945 103.057 31.2146C102.691 30.8268 102.508 30.3084 102.508 29.6594C102.508 29.1132 102.637 28.6423 102.894 28.2466C103.15 27.8429 103.508 27.5342 103.968 27.3205C104.427 27.1068 104.96 27 105.567 27C106.042 27 106.521 27.0633 107.003 27.19C107.494 27.3087 107.883 27.4551 108.171 27.6292L107.529 29.4932C107.248 29.3349 106.929 29.2082 106.571 29.1132C106.213 29.0103 105.894 28.9589 105.614 28.9589C105.357 28.9589 105.151 29.0024 104.995 29.0895C104.839 29.1686 104.762 29.2834 104.762 29.4338C104.762 29.6158 104.871 29.7702 105.089 29.8968C105.306 30.0155 105.696 30.1738 106.256 30.3717C106.754 30.5537 107.155 30.7437 107.459 30.9416C107.77 31.1315 108.007 31.3808 108.171 31.6895C108.342 31.9903 108.428 32.3741 108.428 32.8411C108.428 33.7275 108.144 34.4201 107.575 34.9187C107.007 35.4174 106.225 35.6667 105.229 35.6667Z" fill="#7366FF"/>
<path d="M116.049 35.6667C115.333 35.6667 114.71 35.5361 114.181 35.2749C113.651 35.0137 113.239 34.6377 112.943 34.147C112.655 33.6484 112.511 33.0548 112.511 32.3662V27.1187H114.729V32.1288C114.729 32.5957 114.846 32.9479 115.08 33.1854C115.321 33.4228 115.648 33.5416 116.06 33.5416C116.473 33.5416 116.796 33.4228 117.029 33.1854C117.271 32.9479 117.391 32.5957 117.391 32.1288V27.1187H119.586V32.3662C119.586 33.0548 119.438 33.6484 119.143 34.147C118.855 34.6377 118.446 35.0137 117.917 35.2749C117.387 35.5361 116.765 35.6667 116.049 35.6667Z" fill="#7366FF"/>
<path d="M127.401 27.1187C128.016 27.1187 128.541 27.2493 128.977 27.5105C129.413 27.7638 129.74 28.1041 129.958 28.5315C130.183 28.951 130.296 29.4021 130.296 29.8849C130.296 30.3756 130.183 30.8426 129.958 31.2858C129.74 31.7212 129.409 32.0773 128.965 32.3543C128.529 32.6234 128.008 32.758 127.401 32.758H126.303V35.5479H124.085V27.1187H127.401ZM126.864 30.9416C127.206 30.9416 127.475 30.8545 127.669 30.6804C127.864 30.4983 127.961 30.2332 127.961 29.8849C127.961 29.5683 127.864 29.3309 127.669 29.1726C127.483 29.0143 127.214 28.9352 126.864 28.9352H126.303V30.9416H126.864Z" fill="#7366FF"/>
<path d="M137.605 27.1187C138.22 27.1187 138.746 27.2493 139.181 27.5105C139.617 27.7638 139.944 28.1041 140.162 28.5315C140.388 28.951 140.501 29.4021 140.501 29.8849C140.501 30.3756 140.388 30.8426 140.162 31.2858C139.944 31.7212 139.613 32.0773 139.17 32.3543C138.734 32.6234 138.212 32.758 137.605 32.758H136.508V35.5479H134.29V27.1187H137.605ZM137.068 30.9416C137.411 30.9416 137.679 30.8545 137.874 30.6804C138.068 30.4983 138.166 30.2332 138.166 29.8849C138.166 29.5683 138.068 29.3309 137.874 29.1726C137.687 29.0143 137.419 28.9352 137.068 28.9352H136.508V30.9416H137.068Z" fill="#7366FF"/>
<path d="M149.736 33.5416V35.5479H144.494V27.1187H146.712V33.5416H149.736Z" fill="#7366FF"/>
<path d="M156.318 32.3543V35.5479H154.146V32.3543L151.461 27.1187H153.889L155.372 30.2411L156.855 27.1187H159.003L156.318 32.3543Z" fill="#7366FF"/>
<path d="M171.583 35.6667C170.735 35.6667 169.98 35.4886 169.318 35.1324C168.664 34.7763 168.154 34.2737 167.789 33.6247C167.431 32.9677 167.252 32.2158 167.252 31.3689C167.252 30.4983 167.438 29.7346 167.812 29.0776C168.193 28.4128 168.719 27.9023 169.388 27.5461C170.065 27.182 170.828 27 171.676 27C172.61 27 173.506 27.2335 174.362 27.7005L173.65 29.7068C173.323 29.5169 173.011 29.3705 172.716 29.2676C172.42 29.1568 172.105 29.1014 171.77 29.1014C171.108 29.1014 170.575 29.3072 170.17 29.7187C169.773 30.1224 169.575 30.6566 169.575 31.3215C169.575 31.9705 169.77 32.5087 170.159 32.9361C170.548 33.3556 171.085 33.5653 171.77 33.5653C172.455 33.5653 173.159 33.3397 173.883 32.8886L174.49 34.8356C174.093 35.1047 173.661 35.3105 173.194 35.453C172.727 35.5954 172.19 35.6667 171.583 35.6667Z" fill="#7366FF"/>
<path d="M185.609 27.1187V35.5479H183.39V32.3068H180.507V35.5479H178.288V27.1187H180.507V30.3598H183.39V27.1187H185.609Z" fill="#7366FF"/>
<path d="M194.828 33.5059H192.317L191.664 35.5479H189.434L192.411 27.1187H194.851L197.828 35.5479H195.481L194.828 33.5059ZM194.267 31.7489L193.567 29.5525L192.866 31.7489H194.267Z" fill="#7366FF"/>
<path d="M201.662 27.1187H203.88V35.5479H201.662V27.1187Z" fill="#7366FF"/>
<path d="M215.976 27.1187V35.5479H213.84L210.536 30.5854V35.5479H208.434V27.1187H210.583L213.875 32.0932V27.1187H215.976Z" fill="#7366FF"/>
<path d="M106.481 49C105.664 49 104.937 48.8013 104.3 48.4041C103.67 48.0068 103.179 47.4463 102.827 46.7224C102.482 45.9896 102.31 45.151 102.31 44.2064C102.31 43.2353 102.49 42.3834 102.849 41.6507C103.217 40.9091 103.723 40.3397 104.367 39.9424C105.019 39.5364 105.754 39.3333 106.571 39.3333C107.47 39.3333 108.332 39.5937 109.156 40.1146L108.47 42.3525C108.156 42.1406 107.856 41.9773 107.571 41.8625C107.286 41.7389 106.983 41.6771 106.66 41.6771C106.023 41.6771 105.51 41.9067 105.12 42.3657C104.738 42.816 104.547 43.4119 104.547 44.1534C104.547 44.8773 104.734 45.4776 105.109 45.9543C105.484 46.4222 106.001 46.6561 106.66 46.6561C107.32 46.6561 107.998 46.4045 108.695 45.9014L109.28 48.073C108.898 48.3732 108.482 48.6027 108.032 48.7616C107.582 48.9205 107.065 49 106.481 49Z" fill="#7366FF"/>
<path d="M116.559 49C115.765 49 115.049 48.8013 114.412 48.4041C113.775 48.0068 113.273 47.4463 112.906 46.7224C112.546 45.9896 112.366 45.1377 112.366 44.1666C112.366 43.1956 112.546 42.3481 112.906 41.6242C113.273 40.8915 113.775 40.3265 114.412 39.9292C115.057 39.5319 115.78 39.3333 116.582 39.3333C117.384 39.3333 118.103 39.5319 118.74 39.9292C119.385 40.3265 119.887 40.887 120.247 41.6109C120.614 42.3348 120.798 43.1735 120.798 44.1269C120.798 45.0803 120.614 45.9278 120.247 46.6694C119.887 47.4109 119.385 47.9848 118.74 48.3908C118.096 48.7969 117.369 49 116.559 49ZM116.582 46.6297C117.174 46.6297 117.65 46.4045 118.01 45.9543C118.377 45.4953 118.56 44.8994 118.56 44.1666C118.56 43.4339 118.377 42.8424 118.01 42.3922C117.65 41.9332 117.174 41.7036 116.582 41.7036C115.99 41.7036 115.51 41.9332 115.143 42.3922C114.783 42.8424 114.603 43.4339 114.603 44.1666C114.603 44.8994 114.783 45.4953 115.143 45.9543C115.51 46.4045 115.99 46.6297 116.582 46.6297Z" fill="#7366FF"/>
<path d="M131.968 39.4657V48.8676H129.911L126.73 43.3324V48.8676H124.706V39.4657H126.775L129.945 45.0141V39.4657H131.968Z" fill="#7366FF"/>
<path d="M143.617 39.4657V48.8676H141.559L138.378 43.3324V48.8676H136.354V39.4657H138.423L141.593 45.0141V39.4657H143.617Z" fill="#7366FF"/>
<path d="M148.003 39.4657H153.151V41.6507H150.139V43.1205H153.061V45.226H150.139V46.6826H153.253V48.8676H148.003V39.4657Z" fill="#7366FF"/>
<path d="M161.033 49C160.216 49 159.489 48.8013 158.852 48.4041C158.222 48.0068 157.732 47.4463 157.379 46.7224C157.035 45.9896 156.862 45.151 156.862 44.2064C156.862 43.2353 157.042 42.3834 157.402 41.6507C157.769 40.9091 158.275 40.3397 158.919 39.9424C159.571 39.5364 160.306 39.3333 161.123 39.3333C162.022 39.3333 162.884 39.5937 163.709 40.1146L163.023 42.3525C162.708 42.1406 162.408 41.9773 162.123 41.8625C161.839 41.7389 161.535 41.6771 161.213 41.6771C160.576 41.6771 160.062 41.9067 159.673 42.3657C159.29 42.816 159.099 43.4119 159.099 44.1534C159.099 44.8773 159.287 45.4776 159.661 45.9543C160.036 46.4222 160.553 46.6561 161.213 46.6561C161.872 46.6561 162.551 46.4045 163.248 45.9014L163.832 48.073C163.45 48.3732 163.034 48.6027 162.584 48.7616C162.135 48.9205 161.618 49 161.033 49Z" fill="#7366FF"/>
<path d="M172.987 41.6374H170.997V48.8676H168.861V41.6374H166.871V39.4657H172.987V41.6374Z" fill="#7366FF"/>
<path d="M176.755 39.4657H178.891V48.8676H176.755V39.4657Z" fill="#7366FF"/>
<path d="M190.314 39.4657L187.537 48.8676H185.199L182.422 39.4657H184.738L186.379 45.9676L188.021 39.4657H190.314Z" fill="#7366FF"/>
<path d="M193.849 39.4657H195.985V48.8676H193.849V39.4657Z" fill="#7366FF"/>
<path d="M205.867 41.6374H203.878V48.8676H201.742V41.6374H199.752V39.4657H205.867V41.6374Z" fill="#7366FF"/>
<path d="M213.391 45.3055V48.8676H211.3V45.3055L208.714 39.4657H211.052L212.48 42.9484L213.908 39.4657H215.976L213.391 45.3055Z" fill="#7366FF"/>
<defs>
<clipPath id="clip0_2618_29781">
<rect width="74.3098" height="40" fill="white" transform="translate(24 18)"/>
</clipPath>
</defs>
</svg>
