<svg width="52" height="52" viewBox="0 0 52 52" fill="none" xmlns="http://www.w3.org/2000/svg">
<rect width="52" height="52" rx="14" fill="#8AD16D"/>
<path d="M27.5 27.5C26.6667 27.5 25.9583 27.2083 25.375 26.625C24.7917 26.0417 24.5 25.3333 24.5 24.5C24.5 23.6667 24.7917 22.9583 25.375 22.375C25.9583 21.7917 26.6667 21.5 27.5 21.5C28.3333 21.5 29.0417 21.7917 29.625 22.375C30.2083 22.9583 30.5 23.6667 30.5 24.5C30.5 25.3333 30.2083 26.0417 29.625 26.625C29.0417 27.2083 28.3333 27.5 27.5 27.5ZM19.5 31C19.0875 31 18.7344 30.8531 18.4406 30.5594C18.1469 30.2656 18 29.9125 18 29.5V19.5C18 19.0875 18.1469 18.7344 18.4406 18.4406C18.7344 18.1469 19.0875 18 19.5 18H35.5C35.9125 18 36.2656 18.1469 36.5594 18.4406C36.8531 18.7344 37 19.0875 37 19.5V29.5C37 29.9125 36.8531 30.2656 36.5594 30.5594C36.2656 30.8531 35.9125 31 35.5 31H19.5ZM22 29.5H33C33 28.8 33.2417 28.2083 33.725 27.725C34.2083 27.2417 34.8 27 35.5 27V22C34.8 22 34.2083 21.7583 33.725 21.275C33.2417 20.7917 33 20.2 33 19.5H22C22 20.2 21.7583 20.7917 21.275 21.275C20.7917 21.7583 20.2 22 19.5 22V27C20.2 27 20.7917 27.2417 21.275 27.725C21.7583 28.2083 22 28.8 22 29.5ZM16.5 34C16.0875 34 15.7344 33.8531 15.4406 33.5594C15.1469 33.2656 15 32.9125 15 32.5V21.75C15 21.5375 15.0723 21.3594 15.2169 21.2156C15.3615 21.0719 15.5406 21 15.7544 21C15.9681 21 16.1458 21.0719 16.2875 21.2156C16.4292 21.3594 16.5 21.5375 16.5 21.75V32.5H33.25C33.4625 32.5 33.6406 32.5723 33.7844 32.7169C33.9281 32.8615 34 33.0406 34 33.2544C34 33.4681 33.9281 33.6458 33.7844 33.7875C33.6406 33.9292 33.4625 34 33.25 34H16.5Z" fill="white"/>
</svg>
