<svg width="104" height="92" viewBox="0 0 104 92" fill="none" xmlns="http://www.w3.org/2000/svg">
<defs>
<linearGradient id="paint0_linear_1278_181798" x1="56.9387" y1="-14.4815" x2="61.5523" y2="148.529" gradientUnits="userSpaceOnUse">
<stop stop-color="#A9B5F3"/>
<stop offset="1" stop-color="#2F80ED"/>
</linearGradient>
<linearGradient id="paint1_linear_1278_181798" x1="59.0899" y1="-8.38994" x2="63.2749" y2="132.795" gradientUnits="userSpaceOnUse">
<stop stop-color="#A9B5F3"/>
<stop offset="0.914127" stop-color="#2F80ED"/>
</linearGradient>
<linearGradient id="paint2_linear_1278_181798" x1="95.5054" y1="75.6726" x2="95.5054" y2="85.7744" gradientUnits="userSpaceOnUse">
<stop stop-color="#A9B5F3"/>
<stop offset="1" stop-color="#2F80ED"/>
</linearGradient>
</defs>
<path fill-rule="evenodd" clip-rule="evenodd" d="M101.931 24.4145C102.245 24.4125 102.553 24.504 102.815 24.6773C103.077 24.8505 103.281 25.0978 103.402 25.3876C103.523 25.6774 103.556 25.9967 103.495 26.3048C103.434 26.613 103.283 26.8961 103.061 27.1182C102.839 27.3403 102.556 27.4913 102.248 27.5521C101.939 27.6129 101.62 27.5807 101.33 27.4596C101.041 27.3385 100.793 27.1339 100.62 26.872C100.447 26.61 100.355 26.3024 100.357 25.9883C100.36 25.5717 100.527 25.1729 100.821 24.8783C101.116 24.5838 101.514 24.4171 101.931 24.4145ZM75.9328 3.61076e-05C76.2036 -0.00193301 76.4688 0.0766773 76.6947 0.225867C76.9207 0.375058 77.0971 0.588085 77.2016 0.837847C77.3062 1.08761 77.334 1.36281 77.2817 1.62846C77.2293 1.8941 77.0992 2.13817 76.9077 2.32962C76.7163 2.52107 76.4722 2.65124 76.2066 2.70358C75.9409 2.75592 75.6657 2.72805 75.4159 2.62353C75.1662 2.51901 74.9532 2.34256 74.804 2.11662C74.6548 1.89069 74.5762 1.62548 74.5781 1.35474C74.5781 0.995447 74.7209 0.650873 74.9749 0.396818C75.229 0.142763 75.5735 3.61076e-05 75.9328 3.61076e-05ZM44.197 88.0156C44.5911 88.0156 44.9762 88.1324 45.3038 88.3513C45.6315 88.5702 45.8868 88.8814 46.0376 89.2454C46.1884 89.6094 46.2278 90.01 46.151 90.3965C46.0741 90.7829 45.8843 91.1379 45.6057 91.4165C45.3271 91.6951 44.9721 91.8848 44.5857 91.9617C44.1992 92.0386 43.7987 91.9991 43.4347 91.8484C43.0706 91.6976 42.7595 91.4422 42.5406 91.1146C42.3217 90.787 42.2048 90.4018 42.2048 90.0078C42.2048 89.4794 42.4147 88.9727 42.7883 88.5991C43.1619 88.2255 43.6687 88.0156 44.197 88.0156ZM5.34907 69.4383L6.8731 66.2109L7.2815 65.3443L7.9987 64.8463L10.6483 62.9935L7.96881 61.1308L7.25162 60.6327L6.84322 59.7661L5.33911 56.5487L3.80511 59.7661L3.39671 60.6327L2.68947 61.1308L0 62.9935L2.65959 64.8463L3.36682 65.3443L3.77523 66.2109L5.34907 69.4383Z" fill="url(#paint0_linear_1278_181798)"/>
<path d="M93.618 4.15356H16C13.7909 4.15356 12 5.94442 12 8.15356V79.8417C12 82.0508 13.7909 83.8417 16 83.8417H93.618C95.8271 83.8417 97.618 82.0508 97.618 79.8417V8.15356C97.618 5.94443 95.8271 4.15356 93.618 4.15356Z" fill="url(#paint1_linear_1278_181798)"/>
<path d="M90.0505 78.2363L90.0589 78.2451L90.0675 78.2537L93.0551 81.2413L93.0558 81.242L97.4981 85.6928C98.3228 86.519 99.6614 86.5197 100.487 85.6942C101.312 84.8693 101.312 83.5318 100.487 82.7069L95.2968 77.5168L95.2968 77.5168L95.2873 77.5075L93.0106 75.2904C92.8139 75.0949 92.5802 74.9405 92.323 74.8363C92.0889 74.7415 91.8397 74.69 91.5876 74.6843C90.8097 74.6017 90.3801 75.2002 90.2555 75.4074C90.2484 75.4191 90.2403 75.4302 90.2311 75.4404C90.2092 75.4593 90.1859 75.4765 90.1614 75.4919C89.9319 75.6358 89.371 76.0773 89.4576 76.838C89.479 77.3598 89.6892 77.857 90.0505 78.2363Z" fill="white" stroke="url(#paint2_linear_1278_181798)" stroke-width="2" stroke-linecap="round"/>
<path fill-rule="evenodd" clip-rule="evenodd" d="M67.3164 65.9119C67.562 66.1563 67.7006 66.4882 67.7015 66.8347C67.7025 67.1813 67.5657 67.514 67.3213 67.7597C67.077 68.0054 66.745 68.1439 66.3985 68.1448C66.052 68.1458 65.7193 68.009 65.4736 67.7646C64.3592 66.6541 63.475 65.3346 62.8717 63.8817C62.2684 62.4287 61.9579 60.871 61.9579 59.2978C61.9579 57.7246 62.2684 56.1668 62.8717 54.7139C63.475 53.261 64.3592 51.9414 65.4736 50.8309C65.722 50.6076 66.0466 50.488 66.3806 50.4969C66.7146 50.5058 67.0324 50.6424 67.2686 50.8787C67.5048 51.1149 67.6415 51.4327 67.6503 51.7667C67.6592 52.1006 67.5397 52.4252 67.3164 52.6737C66.448 53.5414 65.7592 54.5717 65.2893 55.7057C64.8193 56.8398 64.5774 58.0553 64.5774 59.2828C64.5774 60.5104 64.8193 61.7259 65.2893 62.8599C65.7592 63.994 66.448 65.0243 67.3164 65.892V65.9119ZM83.772 69.1293C86.0565 66.8496 87.4796 63.8482 87.7986 60.6366C88.1177 57.425 87.313 54.2022 85.5216 51.5176C83.7303 48.833 81.0633 46.8529 77.9753 45.9147C74.8873 44.9765 71.5695 45.1385 68.5875 46.3729C65.6056 47.6073 63.1441 49.8378 61.6227 52.6841C60.1014 55.5304 59.6143 58.8163 60.2446 61.9815C60.875 65.1467 62.5836 67.9953 65.0793 70.0417C67.5749 72.088 70.7031 73.2054 73.9305 73.2034C75.7598 73.2034 77.571 72.8417 79.26 72.1391C80.949 71.4365 82.4824 70.4068 83.772 69.1094V69.1293Z" fill="#FEFEFE"/>
<path fill-rule="evenodd" clip-rule="evenodd" d="M22.3422 29.8234C21.9961 29.8234 21.6642 29.6859 21.4195 29.4412C21.1748 29.1965 21.0373 28.8645 21.0373 28.5185C21.0373 28.1724 21.1748 27.8405 21.4195 27.5958C21.6642 27.3511 21.9961 27.2136 22.3422 27.2136H33.7973C34.1434 27.2136 34.4753 27.3511 34.72 27.5958C34.9648 27.8405 35.1022 28.1724 35.1022 28.5185C35.1022 28.8645 34.9648 29.1965 34.72 29.4412C34.4753 29.6859 34.1434 29.8234 33.7973 29.8234H22.3422ZM22.3422 37.3041C21.9961 37.3041 21.6642 37.1666 21.4195 36.9219C21.1748 36.6772 21.0373 36.3453 21.0373 35.9992C21.0373 35.6531 21.1748 35.3212 21.4195 35.0765C21.6642 34.8318 21.9961 34.6943 22.3422 34.6943H27.3227C27.6688 34.6943 28.0007 34.8318 28.2454 35.0765C28.4901 35.3212 28.6276 35.6531 28.6276 35.9992C28.6276 36.3453 28.4901 36.6772 28.2454 36.9219C28.0007 37.1666 27.6688 37.3041 27.3227 37.3041H22.3422ZM32.4426 37.3041C32.0966 37.3041 31.7647 37.1666 31.5199 36.9219C31.2752 36.6772 31.1377 36.3453 31.1377 35.9992C31.1377 35.6531 31.2752 35.3212 31.5199 35.0765C31.7647 34.8318 32.0966 34.6943 32.4426 34.6943H38.7778C39.1239 34.6943 39.4558 34.8318 39.7005 35.0765C39.9453 35.3212 40.0827 35.6531 40.0827 35.9992C40.0827 36.3453 39.9453 36.6772 39.7005 36.9219C39.4558 37.1666 39.1239 37.3041 38.7778 37.3041H32.4426ZM42.5431 37.3041C42.197 37.3041 41.8651 37.1666 41.6204 36.9219C41.3757 36.6772 41.2382 36.3453 41.2382 35.9992C41.2382 35.6531 41.3757 35.3212 41.6204 35.0765C41.8651 34.8318 42.197 34.6943 42.5431 34.6943H54.9147C55.2608 34.6943 55.5927 34.8318 55.8374 35.0765C56.0821 35.3212 56.2196 35.6531 56.2196 35.9992C56.2196 36.3453 56.0821 36.6772 55.8374 36.9219C55.5927 37.1666 55.2608 37.3041 54.9147 37.3041H42.5431ZM60.6124 37.3041C60.2663 37.3041 59.9344 37.1666 59.6897 36.9219C59.445 36.6772 59.3075 36.3453 59.3075 35.9992C59.3075 35.6531 59.445 35.3212 59.6897 35.0765C59.9344 34.8318 60.2663 34.6943 60.6124 34.6943H65.5929C65.939 34.6943 66.2709 34.8318 66.5156 35.0765C66.7603 35.3212 66.8978 35.6531 66.8978 35.9992C66.8978 36.3453 66.7603 36.6772 66.5156 36.9219C66.2709 37.1666 65.939 37.3041 65.5929 37.3041H60.6124ZM69.4279 37.3041C69.0818 37.3041 68.7499 37.1666 68.5052 36.9219C68.2605 36.6772 68.123 36.3453 68.123 35.9992C68.123 35.6531 68.2605 35.3212 68.5052 35.0765C68.7499 34.8318 69.0818 34.6943 69.4279 34.6943H71.5795C71.9256 34.6943 72.2575 34.8318 72.5022 35.0765C72.7469 35.3212 72.8844 35.6531 72.8844 35.9992C72.8844 36.3453 72.7469 36.6772 72.5022 36.9219C72.2575 37.1666 71.9256 37.3041 71.5795 37.3041H69.4279ZM36.437 44.2768H22.3422C22.1708 44.2768 22.0011 44.243 21.8428 44.1775C21.6845 44.1119 21.5406 44.0158 21.4195 43.8946C21.2983 43.7734 21.2022 43.6296 21.1366 43.4713C21.071 43.313 21.0373 43.1433 21.0373 42.9719C21.0373 42.8005 21.071 42.6309 21.1366 42.4725C21.2022 42.3142 21.2983 42.1704 21.4195 42.0492C21.5406 41.928 21.6845 41.8319 21.8428 41.7663C22.0011 41.7008 22.1708 41.667 22.3422 41.667H36.437C36.6084 41.667 36.778 41.7008 36.9364 41.7663C37.0947 41.8319 37.2385 41.928 37.3597 42.0492C37.4809 42.1704 37.577 42.3142 37.6426 42.4725C37.7081 42.6309 37.7419 42.8005 37.7419 42.9719C37.7419 43.1433 37.7081 43.313 37.6426 43.4713C37.577 43.6296 37.4809 43.7734 37.3597 43.8946C37.2385 44.0158 37.0947 44.1119 36.9364 44.1775C36.778 44.243 36.6084 44.2768 36.437 44.2768ZM43.1208 62.6848C43.4669 62.6848 43.7988 62.8222 44.0435 63.067C44.2883 63.3117 44.4257 63.6436 44.4257 63.9897V69.279C44.4257 69.625 44.2883 69.9569 44.0435 70.2017C43.7988 70.4464 43.4669 70.5839 43.1208 70.5839H22.3422C22.1704 70.5852 22.0002 70.5523 21.8412 70.4872C21.6823 70.4221 21.5379 70.326 21.4165 70.2046C21.2951 70.0832 21.199 69.9388 21.1339 69.7799C21.0688 69.621 21.0359 69.4507 21.0373 69.279V64.0195C21.0359 63.8478 21.0688 63.6775 21.1339 63.5186C21.199 63.3597 21.2951 63.2153 21.4165 63.0939C21.5379 62.9725 21.6823 62.8764 21.8412 62.8113C22.0002 62.7462 22.1704 62.7133 22.3422 62.7146L43.1208 62.6848ZM44.4257 51.7276V57.0269C44.4257 57.373 44.2883 57.7049 44.0435 57.9496C43.7988 58.1943 43.4669 58.3318 43.1208 58.3318H22.3422C21.9961 58.3318 21.6642 58.1943 21.4195 57.9496C21.1748 57.7049 21.0373 57.373 21.0373 57.0269V51.7874C21.0373 51.4413 21.1748 51.1094 21.4195 50.8647C21.6642 50.62 21.9961 50.4825 22.3422 50.4825H43.1208C43.4669 50.4825 43.7988 50.62 44.0435 50.8647C44.2883 51.1094 44.4257 51.4413 44.4257 51.7874V51.7276ZM91.4517 73.0741C91.94 73.0724 92.4239 73.1076 92.8752 73.294C93.3266 73.4804 93.7366 73.7543 94.0814 74.1001V20.7688H14.981V77.6761C14.9797 78.0406 15.0503 78.4017 15.1889 78.7389C15.3275 79.076 15.5312 79.3824 15.7885 79.6406C16.0458 79.8988 16.3515 80.1037 16.6881 80.2435C17.0247 80.3833 17.3856 80.4552 17.7501 80.4552H89.8579L88.8618 79.4591C88.3285 78.9215 87.9707 78.2349 87.8355 77.4898C87.7004 76.7447 87.7943 75.9761 88.1048 75.2855L84.6583 71.8887C81.4103 74.6605 77.2156 76.0676 72.9532 75.8149C68.6908 75.5623 64.6916 73.6696 61.7938 70.5336C58.896 67.3975 57.3245 63.2615 57.4088 58.9925C57.493 54.7234 59.2265 50.6527 62.2457 47.6334C65.265 44.6141 69.3358 42.8807 73.6048 42.7964C77.8739 42.7122 82.0099 44.2836 85.1459 47.1814C88.282 50.0792 90.1746 54.0784 90.4273 58.3408C90.6799 62.6033 89.2729 66.798 86.5011 70.046L89.9177 73.4526C90.3961 73.2182 90.9192 73.0891 91.4517 73.0741Z" fill="#FEFEFE"/>
<path d="M41.8161 53.092H23.6472V55.7815H41.8161V53.092Z" fill="#FEFEFE"/>
<path d="M41.8161 65.3142H23.6472V68.0037H41.8161V65.3142Z" fill="#FEFEFE"/>
<path fill-rule="evenodd" clip-rule="evenodd" d="M25.1315 10.9868C25.3713 11.2239 25.5616 11.5063 25.6915 11.8175C25.8214 12.1286 25.8882 12.4625 25.8882 12.7997C25.8882 13.1369 25.8214 13.4708 25.6915 13.7819C25.5616 14.0931 25.3713 14.3755 25.1315 14.6126C24.7722 14.9703 24.315 15.2137 23.8176 15.3121C23.3202 15.4106 22.8048 15.3597 22.3363 15.1659C21.8678 14.9721 21.467 14.644 21.1845 14.223C20.902 13.8019 20.7504 13.3067 20.7487 12.7997C20.7456 12.2905 20.8944 11.792 21.1761 11.3678C21.4578 10.9437 21.8596 10.6132 22.3301 10.4186C22.8006 10.2239 23.3185 10.174 23.8175 10.2753C24.3165 10.3765 24.774 10.6242 25.1315 10.9868ZM32.9808 10.9868C33.3952 11.4059 33.6516 11.9555 33.7065 12.5423C33.7614 13.1291 33.6113 13.7168 33.2818 14.2055C32.9523 14.6941 32.4637 15.0535 31.8991 15.2226C31.3345 15.3917 30.7288 15.36 30.185 15.1329C29.6411 14.9058 29.1927 14.4973 28.916 13.9769C28.6394 13.4566 28.5515 12.8564 28.6673 12.2785C28.7831 11.7007 29.0956 11.1808 29.5515 10.8073C30.0074 10.4338 30.5785 10.2297 31.1679 10.2298C31.5053 10.2287 31.8395 10.2951 32.1508 10.4251C32.4622 10.5551 32.7444 10.7461 32.9808 10.9868ZM40.8401 10.9868C41.2007 11.3457 41.4467 11.8036 41.5468 12.3025C41.647 12.8013 41.5968 13.3187 41.4026 13.789C41.2085 14.2593 40.8791 14.6614 40.4562 14.9443C40.0333 15.2272 39.536 15.3783 39.0271 15.3783C38.5183 15.3783 38.021 15.2272 37.5981 14.9443C37.1752 14.6614 36.8458 14.2593 36.6517 13.789C36.4575 13.3187 36.4073 12.8013 36.5075 12.3025C36.6076 11.8036 36.8536 11.3457 37.2142 10.9868C37.4495 10.7473 37.7301 10.557 38.0396 10.4271C38.3492 10.2971 38.6815 10.23 39.0172 10.2298C39.356 10.229 39.6916 10.2956 40.0045 10.4255C40.3174 10.5555 40.6014 10.7463 40.8401 10.9868ZM14.9414 18.1687H94.0917V10.3094C94.0917 9.57502 93.7999 8.87067 93.2806 8.35135C92.7613 7.83203 92.0569 7.54028 91.3225 7.54028H17.7504C17.016 7.54028 16.3116 7.83203 15.7923 8.35135C15.273 8.87067 14.9813 9.57502 14.9813 10.3094L14.9414 18.1687Z" fill="#FEFEFE"/>
</svg>
