<svg width="52" height="52" viewBox="0 0 52 52" fill="none" xmlns="http://www.w3.org/2000/svg">
<rect width="52" height="52" rx="14" fill="#56B6F4"/>
<g clip-path="url(#clip0_3303_2751)">
<path d="M14 32V30.675C14 30.0322 14.3458 29.509 15.0375 29.1054C15.7292 28.7018 16.6365 28.5 17.7594 28.5C17.9622 28.5 18.1571 28.5042 18.3443 28.5125C18.5314 28.5208 18.7167 28.5388 18.9 28.5663C18.7667 28.8554 18.6667 29.1485 18.6 29.4454C18.5333 29.7424 18.5 30.0522 18.5 30.375V32H14ZM20 32V30.375C20 29.8417 20.1458 29.3542 20.4375 28.9125C20.7292 28.4708 21.1417 28.0833 21.675 27.75C22.2083 27.4167 22.8458 27.1667 23.5875 27C24.3292 26.8333 25.1333 26.75 26 26.75C26.8833 26.75 27.6958 26.8333 28.4375 27C29.1792 27.1667 29.8167 27.4167 30.35 27.75C30.8833 28.0833 31.2917 28.4708 31.575 28.9125C31.8583 29.3542 32 29.8417 32 30.375V32H20ZM33.5 32V30.375C33.5 30.044 33.4708 29.7321 33.4125 29.4392C33.3542 29.1464 33.2583 28.8561 33.125 28.5682C33.3083 28.5394 33.4931 28.5208 33.6793 28.5125C33.8655 28.5042 34.0557 28.5 34.25 28.5C35.375 28.5 36.2812 28.6981 36.9688 29.0942C37.6562 29.4903 38 30.0173 38 30.675V32H33.5ZM21.5 30.5H30.5V30.35C30.5 29.7333 30.0792 29.2292 29.2375 28.8375C28.3958 28.4458 27.3167 28.25 26 28.25C24.6833 28.25 23.6042 28.4458 22.7625 28.8375C21.9208 29.2292 21.5 29.7417 21.5 30.375V30.5ZM17.7392 27.75C17.2631 27.75 16.8542 27.5786 16.5125 27.2359C16.1708 26.8932 16 26.4813 16 26C16 25.5167 16.1714 25.1042 16.5141 24.7625C16.8568 24.4208 17.2687 24.25 17.75 24.25C18.2333 24.25 18.6458 24.4208 18.9875 24.7625C19.3292 25.1042 19.5 25.5203 19.5 26.0108C19.5 26.4869 19.3292 26.8958 18.9875 27.2375C18.6458 27.5792 18.2297 27.75 17.7392 27.75ZM34.2392 27.75C33.7631 27.75 33.3542 27.5786 33.0125 27.2359C32.6708 26.8932 32.5 26.4813 32.5 26C32.5 25.5167 32.6714 25.1042 33.0141 24.7625C33.3568 24.4208 33.7688 24.25 34.25 24.25C34.7333 24.25 35.1458 24.4208 35.4875 24.7625C35.8292 25.1042 36 25.5203 36 26.0108C36 26.4869 35.8292 26.8958 35.4875 27.2375C35.1458 27.5792 34.7297 27.75 34.2392 27.75ZM26 26C25.1667 26 24.4583 25.7083 23.875 25.125C23.2917 24.5417 23 23.8333 23 23C23 22.15 23.2917 21.4375 23.875 20.8625C24.4583 20.2875 25.1667 20 26 20C26.85 20 27.5625 20.2875 28.1375 20.8625C28.7125 21.4375 29 22.15 29 23C29 23.8333 28.7125 24.5417 28.1375 25.125C27.5625 25.7083 26.85 26 26 26ZM26.0088 24.5C26.4363 24.5 26.7917 24.3554 27.075 24.0662C27.3583 23.777 27.5 23.4187 27.5 22.9912C27.5 22.5637 27.3571 22.2083 27.0713 21.925C26.7855 21.6417 26.4313 21.5 26.0088 21.5C25.5863 21.5 25.2292 21.6429 24.9375 21.9287C24.6458 22.2145 24.5 22.5687 24.5 22.9912C24.5 23.4137 24.6446 23.7708 24.9338 24.0625C25.223 24.3542 25.5813 24.5 26.0088 24.5Z" fill="white"/>
</g>
<defs>
<clipPath id="clip0_3303_2751">
<rect width="24" height="24" fill="white" transform="translate(14 14)"/>
</clipPath>
</defs>
</svg>
