<svg width="142" height="142" viewBox="0 0 142 142" fill="none" xmlns="http://www.w3.org/2000/svg">
<path fill-rule="evenodd" clip-rule="evenodd" d="M127 71.5C127 86.4847 121.047 100.856 110.452 111.452C99.8557 122.047 85.4847 128 70.5 128C55.5153 128 41.1443 122.047 30.5485 111.452C19.9527 100.856 14 86.4847 14 71.5C14 56.5153 19.9527 42.1443 30.5485 31.5485C41.1443 20.9527 55.5153 15 70.5 15C85.4847 15 99.8557 20.9527 110.452 31.5485C121.047 42.1443 127 56.5153 127 71.5ZM84.625 50.3125C84.625 54.0587 83.1368 57.6514 80.4879 60.3004C77.8389 62.9493 74.2462 64.4375 70.5 64.4375C66.7538 64.4375 63.1611 62.9493 60.5121 60.3004C57.8632 57.6514 56.375 54.0587 56.375 50.3125C56.375 46.5663 57.8632 42.9736 60.5121 40.3246C63.1611 37.6757 66.7538 36.1875 70.5 36.1875C74.2462 36.1875 77.8389 37.6757 80.4879 40.3246C83.1368 42.9736 84.625 46.5663 84.625 50.3125ZM70.5 78.5625C63.7384 78.5611 57.1185 80.5011 51.4271 84.1518C45.7357 87.8025 41.2121 93.0104 38.3939 99.1568C42.3678 103.78 47.2945 107.489 52.8363 110.029C58.378 112.57 64.4037 113.882 70.5 113.875C76.5963 113.882 82.622 112.57 88.1637 110.029C93.7055 107.489 98.6322 103.78 102.606 99.1568C99.7879 93.0104 95.2643 87.8025 89.5729 84.1518C83.8815 80.5011 77.2616 78.5611 70.5 78.5625Z" fill="#ACB5BD"/>
</svg>
