<svg width="54" height="54" viewBox="0 0 54 54" fill="none" xmlns="http://www.w3.org/2000/svg">
<rect opacity="0.1" x="0.461538" y="0.461538" width="53.0769" height="53.0769" rx="26.5385" fill="#A927F9" stroke="#A927F9" stroke-width="0.923077"/>
<path d="M27 16.8056C27.9773 15.6983 29.4071 15 31 15C33.9455 15 36.3333 17.3878 36.3333 20.3333C36.3333 23.2789 33.9455 25.6667 31 25.6667C29.4071 25.6667 27.9773 24.9683 27 23.8611M31 39H15V37.6667C15 33.2484 18.5817 29.6667 23 29.6667C27.4183 29.6667 31 33.2484 31 37.6667V39ZM31 39H39V37.6667C39 33.2484 35.4183 29.6667 31 29.6667C29.5429 29.6667 28.1767 30.0562 27 30.7369M28.3333 20.3333C28.3333 23.2789 25.9455 25.6667 23 25.6667C20.0545 25.6667 17.6667 23.2789 17.6667 20.3333C17.6667 17.3878 20.0545 15 23 15C25.9455 15 28.3333 17.3878 28.3333 20.3333Z" stroke="#A927F9" stroke-width="2" stroke-linecap="round" stroke-linejoin="round"/>
</svg>
