<svg width="380" height="103" viewBox="0 0 380 103" fill="none" xmlns="http://www.w3.org/2000/svg">
<g clip-path="url(#clip0_3127_6316)" filter="url(#filter0_d_3127_6316)">
<rect width="368" height="92" transform="translate(6 2)" fill="#DC3545"/>
<path fill-rule="evenodd" clip-rule="evenodd" d="M322.5 86.9091C372.432 86.9091 412.909 46.4316 412.909 -3.5C412.909 -53.4316 372.432 -93.9091 322.5 -93.9091C272.568 -93.9091 232.091 -53.4316 232.091 -3.5C232.091 46.4316 272.568 86.9091 322.5 86.9091ZM322.5 133C397.887 133 459 71.8869 459 -3.5C459 -78.8869 397.887 -140 322.5 -140C247.113 -140 186 -78.8869 186 -3.5C186 71.8869 247.113 133 322.5 133Z" fill="url(#paint0_linear_3127_6316)" fill-opacity="0.5"/>
</g>
<defs>
<filter id="filter0_d_3127_6316" x="0.5" y="4.76837e-07" width="379" height="103" filterUnits="userSpaceOnUse" color-interpolation-filters="sRGB">
<feFlood flood-opacity="0" result="BackgroundImageFix"/>
<feColorMatrix in="SourceAlpha" type="matrix" values="0 0 0 0 0 0 0 0 0 0 0 0 0 0 0 0 0 0 127 0" result="hardAlpha"/>
<feOffset dy="3.5"/>
<feGaussianBlur stdDeviation="2.75"/>
<feColorMatrix type="matrix" values="0 0 0 0 0 0 0 0 0 0 0 0 0 0 0 0 0 0 0.02 0"/>
<feBlend mode="normal" in2="BackgroundImageFix" result="effect1_dropShadow_3127_6316"/>
<feBlend mode="normal" in="SourceGraphic" in2="effect1_dropShadow_3127_6316" result="shape"/>
</filter>
<linearGradient id="paint0_linear_3127_6316" x1="322.5" y1="-140" x2="322.5" y2="133" gradientUnits="userSpaceOnUse">
<stop stop-color="#F5FAFF"/>
<stop offset="1" stop-color="#F5FAFF" stop-opacity="0"/>
</linearGradient>
<clipPath id="clip0_3127_6316">
<rect width="368" height="92" fill="white" transform="translate(6 2)"/>
</clipPath>
</defs>
</svg>
