<svg width="38" height="34" viewBox="0 0 38 34" fill="none" xmlns="http://www.w3.org/2000/svg">
<path d="M18.9998 17.9766L26.0715 25.0466L23.7132 27.405L20.6665 24.3583V33.6666H17.3332V24.355L14.2865 27.405L11.9282 25.0466L18.9998 17.9766ZM18.9998 0.333313C21.8615 0.333449 24.6233 1.38517 26.7601 3.28851C28.897 5.19185 30.26 7.81409 30.5898 10.6566C32.6636 11.2222 34.4727 12.4985 35.7009 14.2625C36.9292 16.0266 37.4984 18.1661 37.3092 20.3073C37.12 22.4485 36.1843 24.455 34.6658 25.9763C33.1472 27.4976 31.1423 28.4369 29.0015 28.63V25.2733C29.7684 25.1638 30.5059 24.9026 31.1708 24.5049C31.8357 24.1073 32.4147 23.5812 32.8741 22.9573C33.3335 22.3335 33.664 21.6244 33.8463 20.8714C34.0286 20.1184 34.0591 19.3367 33.936 18.5718C33.8129 17.8069 33.5387 17.0742 33.1294 16.4164C32.72 15.7586 32.1837 15.189 31.5518 14.7408C30.9199 14.2925 30.2051 13.9746 29.449 13.8057C28.6929 13.6367 27.9108 13.62 27.1482 13.7566C27.4092 12.5415 27.3951 11.2833 27.1069 10.0742C26.8186 8.8652 26.2636 7.73595 25.4825 6.7692C24.7013 5.80244 23.7138 5.02266 22.5923 4.48697C21.4707 3.95128 20.2436 3.67326 19.0007 3.67326C17.7577 3.67326 16.5306 3.95128 15.409 4.48697C14.2875 5.02266 13.3 5.80244 12.5188 6.7692C11.7377 7.73595 11.1827 8.8652 10.8945 10.0742C10.6063 11.2833 10.5921 12.5415 10.8532 13.7566C9.33258 13.4711 7.76085 13.8013 6.48373 14.6746C5.20661 15.5479 4.32871 16.8927 4.04316 18.4133C3.75761 19.9339 4.0878 21.5056 4.96109 22.7827C5.83439 24.0599 7.17925 24.9378 8.69983 25.2233L8.99982 25.2733V28.63C6.85891 28.4372 4.85383 27.4981 3.33505 25.977C1.81626 24.4558 0.880369 22.4492 0.690947 20.308C0.501526 18.1668 1.07062 16.0271 2.29877 14.2629C3.52692 12.4988 5.336 11.2223 7.40982 10.6566C7.73933 7.81394 9.10217 5.1915 11.2391 3.28809C13.3761 1.38468 16.1381 0.333085 18.9998 0.333313V0.333313Z" fill="black"/>
</svg>
