<svg width="229" height="236" viewBox="0 0 229 236" fill="none" xmlns="http://www.w3.org/2000/svg">
<path d="M3.44125 200.84C4.26125 201.08 5.10125 201.2 5.98125 201.2C7.52125 201.2 8.74125 200.82 9.66125 200.04C10.5813 199.26 11.0413 198.18 11.0413 196.78C11.0413 195.98 10.8813 195.34 10.5612 194.84C10.2413 194.34 9.80125 193.94 9.28125 193.64C8.76125 193.36 8.04125 193.04 7.14125 192.7C6.44125 192.46 5.90125 192.24 5.54125 192.06C5.16125 191.9 4.86125 191.68 4.64125 191.44C4.42125 191.2 4.32125 190.88 4.32125 190.52C4.32125 190.04 4.50125 189.68 4.90125 189.4C5.30125 189.12 5.82125 188.98 6.48125 188.98C7.00125 188.98 7.58125 189.08 8.20125 189.24C8.80125 189.42 9.36125 189.64 9.84125 189.9L10.6013 187.58C10.0813 187.3 9.46125 187.08 8.72125 186.88C7.96125 186.7 7.22125 186.6 6.48125 186.6C5.00125 186.6 3.82125 186.98 2.92125 187.72C2.02125 188.48 1.58125 189.5 1.58125 190.78C1.58125 191.54 1.74125 192.16 2.06125 192.68C2.38125 193.2 2.82125 193.62 3.38125 193.96C3.94125 194.32 4.64125 194.64 5.52125 194.96C6.28125 195.24 6.82125 195.48 7.18125 195.64C7.54125 195.8 7.80125 196 8.00125 196.22C8.20125 196.46 8.30125 196.74 8.30125 197.1C8.30125 197.66 8.10125 198.08 7.74125 198.36C7.36125 198.66 6.82125 198.8 6.12125 198.8C5.40125 198.8 4.66125 198.66 3.94125 198.38C3.20125 198.1 2.54125 197.74 1.96125 197.3L1.26125 199.8C1.88125 200.24 2.60125 200.6 3.44125 200.84ZM22.7014 196.48V196.1C22.7014 195.02 22.4814 194.08 22.0814 193.26C21.6814 192.44 21.1014 191.8 20.3814 191.36C19.6414 190.92 18.8014 190.68 17.8414 190.68C16.8814 190.68 16.0014 190.92 15.2414 191.36C14.4614 191.8 13.8414 192.42 13.4014 193.22C12.9614 194.02 12.7414 194.94 12.7414 195.96C12.7414 196.96 12.9614 197.86 13.4014 198.66C13.8414 199.46 14.4814 200.08 15.3014 200.52C16.1014 200.98 17.0414 201.2 18.1014 201.2C18.9414 201.2 19.7214 201.1 20.4414 200.88C21.1414 200.66 21.7414 200.36 22.2414 200L21.6214 198.04C21.2014 198.36 20.7014 198.62 20.1414 198.82C19.5814 199.02 18.9814 199.1 18.3614 199.1C17.4614 199.1 16.7414 198.88 16.2014 198.42C15.6614 197.98 15.3614 197.32 15.2814 196.48H22.7014ZM20.1614 194.78H15.3614C15.5014 194.14 15.8014 193.62 16.2414 193.22C16.6814 192.82 17.2214 192.62 17.8414 192.62C18.4414 192.62 18.9614 192.82 19.3814 193.22C19.8014 193.62 20.0614 194.14 20.1614 194.78ZM25.5267 200.48C26.0067 200.96 26.6867 201.2 27.5667 201.2C28.2467 201.2 28.8867 201.06 29.4867 200.78L29.2067 198.8C28.8067 198.94 28.4867 199 28.2667 199C27.6267 199 27.3267 198.62 27.3267 197.82V185.96H24.8267V198.22C24.8267 199.24 25.0467 200 25.5267 200.48ZM40.26 196.48V196.1C40.26 195.02 40.04 194.08 39.64 193.26C39.24 192.44 38.66 191.8 37.94 191.36C37.2 190.92 36.36 190.68 35.4 190.68C34.44 190.68 33.56 190.92 32.8 191.36C32.02 191.8 31.4 192.42 30.96 193.22C30.52 194.02 30.3 194.94 30.3 195.96C30.3 196.96 30.52 197.86 30.96 198.66C31.4 199.46 32.04 200.08 32.86 200.52C33.66 200.98 34.6 201.2 35.66 201.2C36.5 201.2 37.28 201.1 38 200.88C38.7 200.66 39.3 200.36 39.8 200L39.18 198.04C38.76 198.36 38.26 198.62 37.7 198.82C37.14 199.02 36.54 199.1 35.92 199.1C35.02 199.1 34.3 198.88 33.76 198.42C33.22 197.98 32.92 197.32 32.84 196.48H40.26ZM37.72 194.78H32.92C33.06 194.14 33.36 193.62 33.8 193.22C34.24 192.82 34.78 192.62 35.4 192.62C36 192.62 36.52 192.82 36.94 193.22C37.36 193.62 37.62 194.14 37.72 194.78ZM44.2853 200.54C45.0853 200.98 45.9853 201.2 47.0053 201.2C47.7053 201.2 48.3653 201.12 48.9853 200.92C49.5853 200.72 50.1253 200.46 50.6053 200.14L49.9853 198.06C49.5453 198.34 49.1053 198.54 48.6253 198.7C48.1453 198.86 47.6653 198.94 47.2253 198.94C46.3453 198.94 45.6653 198.68 45.1453 198.12C44.6253 197.56 44.3653 196.84 44.3653 195.94C44.3653 195.06 44.6253 194.34 45.1653 193.78C45.6853 193.22 46.3853 192.94 47.2453 192.94C48.1253 192.94 48.9653 193.22 49.7453 193.78L50.4853 191.66C49.5053 191.02 48.3653 190.68 47.0653 190.68C46.0453 190.68 45.1253 190.92 44.3253 191.36C43.5253 191.8 42.8853 192.42 42.4253 193.22C41.9653 194.02 41.7453 194.94 41.7453 195.98C41.7453 197 41.9653 197.9 42.4053 198.7C42.8453 199.5 43.4853 200.1 44.2853 200.54ZM54.1564 200.38C54.6964 200.94 55.4564 201.2 56.4564 201.2C56.9764 201.2 57.4964 201.14 57.9764 200.98C58.4564 200.84 58.8564 200.66 59.1964 200.42L58.7964 198.4C58.1564 198.76 57.5764 198.94 57.0564 198.94C56.2564 198.94 55.8564 198.48 55.8564 197.54V192.98H58.5964V190.88H55.8564V187.72L53.3564 188.04V190.88H51.7964V192.98H53.3564V197.88C53.3564 199 53.6164 199.82 54.1564 200.38ZM73.6569 191.36C72.9169 190.92 72.0769 190.68 71.1569 190.68C70.4169 190.68 69.7569 190.84 69.1569 191.12C68.5569 191.42 68.0969 191.84 67.7569 192.38V190.88H65.2569V205.2H67.7569V199.46C68.0769 200.02 68.5369 200.46 69.1369 200.76C69.7369 201.06 70.3769 201.2 71.0969 201.2C72.0369 201.2 72.8769 200.98 73.6369 200.52C74.3769 200.08 74.9569 199.44 75.3769 198.64C75.7969 197.84 76.0169 196.94 76.0169 195.94C76.0169 194.94 75.7969 194.04 75.3769 193.24C74.9569 192.44 74.3769 191.82 73.6569 191.36ZM72.6369 198.1C72.1169 198.66 71.4369 198.92 70.5969 198.92C70.0569 198.92 69.5569 198.8 69.1169 198.54C68.6769 198.3 68.3169 197.94 68.0569 197.48C67.7969 197.04 67.6769 196.52 67.6769 195.94C67.6769 195.36 67.7969 194.84 68.0569 194.38C68.3169 193.94 68.6769 193.58 69.1169 193.34C69.5569 193.1 70.0569 192.96 70.6169 192.96C71.4569 192.96 72.1369 193.24 72.6569 193.8C73.1769 194.36 73.4369 195.06 73.4369 195.94C73.4369 196.84 73.1569 197.56 72.6369 198.1ZM85.5698 191.66C84.8098 191.02 83.7498 190.68 82.4098 190.68C81.5898 190.68 80.8298 190.8 80.1098 191C79.3898 191.22 78.7498 191.5 78.2298 191.82L78.8098 193.8C79.8498 193.1 80.8898 192.74 81.9698 192.74C82.7098 192.74 83.2698 192.92 83.6498 193.26C84.0098 193.62 84.2098 194.1 84.2098 194.7V194.9C82.6498 194.94 81.3698 195.06 80.4098 195.28C79.4298 195.5 78.7098 195.84 78.2298 196.32C77.7498 196.8 77.5298 197.42 77.5298 198.2C77.5298 199.14 77.8098 199.88 78.4098 200.42C79.0098 200.96 79.8098 201.22 80.8098 201.22C81.5498 201.22 82.2298 201.08 82.8298 200.78C83.4298 200.48 83.8898 200.08 84.2298 199.6V201H86.7098V194.62C86.7098 193.3 86.3298 192.3 85.5698 191.66ZM83.4698 198.8C82.9698 199.18 82.3898 199.36 81.7098 199.36C81.1898 199.36 80.8098 199.26 80.5298 199.02C80.2498 198.78 80.1298 198.46 80.1298 198.06C80.1298 197.5 80.4298 197.1 81.0298 196.86C81.6298 196.62 82.6898 196.48 84.2098 196.44V197.12C84.2098 197.86 83.9498 198.42 83.4698 198.8ZM95.8138 190.9C95.3738 190.74 94.9338 190.66 94.5138 190.66C93.3938 190.66 92.5538 191.28 92.0338 192.5V190.88H89.5538V201H92.0338V196.22C92.0338 194.14 92.7938 193.1 94.3538 193.1C94.6538 193.1 95.0138 193.18 95.4138 193.3L95.8138 190.9ZM98.9416 200.38C99.4816 200.94 100.242 201.2 101.242 201.2C101.762 201.2 102.282 201.14 102.762 200.98C103.242 200.84 103.642 200.66 103.982 200.42L103.582 198.4C102.942 198.76 102.362 198.94 101.842 198.94C101.042 198.94 100.642 198.48 100.642 197.54V192.98H103.382V190.88H100.642V187.72L98.1416 188.04V190.88H96.5816V192.98H98.1416V197.88C98.1416 199 98.4016 199.82 98.9416 200.38ZM110.302 186.8V201H113.002V186.8H110.302ZM125.455 187.68C124.375 187.1 123.115 186.8 121.695 186.8H116.435V201H121.695C123.095 201 124.355 200.7 125.455 200.1C126.535 199.5 127.395 198.66 127.995 197.58C128.595 196.5 128.895 195.24 128.895 193.82C128.895 192.42 128.595 191.2 127.995 190.14C127.395 189.08 126.535 188.26 125.455 187.68ZM124.795 197.36C123.935 198.22 122.775 198.64 121.315 198.64H119.135V189.16H121.335C122.775 189.16 123.935 189.58 124.795 190.42C125.635 191.26 126.075 192.4 126.075 193.84C126.075 195.34 125.635 196.52 124.795 197.36ZM137.125 200.38C137.665 200.94 138.425 201.2 139.425 201.2C139.945 201.2 140.465 201.14 140.945 200.98C141.425 200.84 141.825 200.66 142.165 200.42L141.765 198.4C141.125 198.76 140.545 198.94 140.025 198.94C139.225 198.94 138.825 198.48 138.825 197.54V192.98H141.565V190.88H138.825V187.72L136.325 188.04V190.88H134.765V192.98H136.325V197.88C136.325 199 136.585 199.82 137.125 200.38ZM145.616 200.52C146.456 200.98 147.396 201.2 148.476 201.2C149.536 201.2 150.476 200.98 151.316 200.52C152.156 200.08 152.796 199.44 153.256 198.64C153.716 197.84 153.956 196.94 153.956 195.94C153.956 194.94 153.716 194.04 153.256 193.24C152.796 192.44 152.156 191.82 151.316 191.36C150.476 190.92 149.536 190.68 148.476 190.68C147.396 190.68 146.456 190.92 145.616 191.36C144.776 191.82 144.136 192.44 143.676 193.24C143.196 194.04 142.976 194.94 142.976 195.94C142.976 196.94 143.196 197.84 143.676 198.64C144.136 199.44 144.776 200.08 145.616 200.52ZM150.576 198.08C150.036 198.64 149.336 198.9 148.476 198.9C147.596 198.9 146.896 198.64 146.356 198.08C145.816 197.54 145.556 196.82 145.556 195.94C145.556 195.06 145.816 194.36 146.356 193.8C146.896 193.26 147.596 192.98 148.476 192.98C149.316 192.98 150.016 193.26 150.556 193.8C151.096 194.36 151.376 195.06 151.376 195.92C151.376 196.8 151.096 197.52 150.576 198.08ZM170.787 185.96H168.287V192.38C167.947 191.84 167.487 191.42 166.907 191.12C166.307 190.84 165.647 190.68 164.907 190.68C163.967 190.68 163.127 190.92 162.387 191.36C161.647 191.82 161.067 192.44 160.647 193.24C160.227 194.04 160.027 194.94 160.027 195.94C160.027 196.94 160.227 197.84 160.647 198.64C161.067 199.44 161.647 200.08 162.387 200.52C163.127 200.98 163.967 201.2 164.907 201.2C165.667 201.2 166.327 201.06 166.907 200.76C167.467 200.48 167.927 200.02 168.287 199.42V201.02H170.787V185.96ZM167.527 198.08C166.967 198.64 166.267 198.92 165.427 198.92C164.587 198.92 163.907 198.66 163.387 198.1C162.867 197.56 162.607 196.84 162.607 195.94C162.607 195.06 162.867 194.34 163.387 193.78C163.907 193.24 164.607 192.96 165.447 192.96C166.287 192.96 166.987 193.24 167.547 193.8C168.087 194.36 168.367 195.08 168.367 195.94C168.367 196.82 168.087 197.52 167.527 198.08ZM173.655 190.88V201H176.155V190.88H173.655ZM173.855 188.74C174.135 189.04 174.515 189.18 174.955 189.18C175.375 189.18 175.735 189.04 176.035 188.74C176.315 188.44 176.475 188.08 176.475 187.64C176.475 187.22 176.315 186.86 176.035 186.56C175.735 186.28 175.375 186.12 174.955 186.12C174.515 186.12 174.135 186.28 173.855 186.56C173.555 186.86 173.415 187.22 173.415 187.64C173.415 188.08 173.555 188.44 173.855 188.74ZM180.245 200.92C180.925 201.12 181.625 201.2 182.345 201.2C183.625 201.2 184.625 200.9 185.345 200.3C186.065 199.7 186.425 198.88 186.425 197.84C186.425 197 186.145 196.34 185.605 195.88C185.065 195.42 184.245 195.04 183.145 194.76C182.505 194.6 182.025 194.42 181.725 194.24C181.405 194.08 181.265 193.82 181.265 193.5C181.265 193.2 181.385 192.96 181.665 192.8C181.925 192.64 182.265 192.54 182.705 192.54C183.185 192.54 183.665 192.64 184.185 192.8C184.705 192.98 185.165 193.2 185.585 193.44L186.045 191.52C185.605 191.28 185.085 191.06 184.505 190.9C183.925 190.74 183.345 190.66 182.745 190.66C181.545 190.66 180.605 190.96 179.885 191.52C179.165 192.1 178.825 192.88 178.825 193.88C178.825 194.48 178.945 194.96 179.205 195.32C179.465 195.7 179.805 196 180.205 196.22C180.605 196.44 181.145 196.66 181.805 196.86C182.645 197.14 183.205 197.36 183.525 197.52C183.825 197.7 183.985 197.96 183.985 198.28C183.985 198.64 183.845 198.9 183.565 199.06C183.285 199.24 182.925 199.32 182.465 199.32C181.885 199.32 181.305 199.22 180.705 199C180.105 198.8 179.585 198.52 179.145 198.16L178.545 200.16C178.985 200.48 179.545 200.74 180.245 200.92ZM197.212 191.36C196.472 190.92 195.632 190.68 194.712 190.68C193.972 190.68 193.312 190.84 192.712 191.12C192.112 191.42 191.652 191.84 191.312 192.38V190.88H188.812V205.2H191.312V199.46C191.632 200.02 192.092 200.46 192.692 200.76C193.292 201.06 193.932 201.2 194.652 201.2C195.592 201.2 196.432 200.98 197.192 200.52C197.932 200.08 198.512 199.44 198.932 198.64C199.352 197.84 199.572 196.94 199.572 195.94C199.572 194.94 199.352 194.04 198.932 193.24C198.512 192.44 197.932 191.82 197.212 191.36ZM196.192 198.1C195.672 198.66 194.992 198.92 194.152 198.92C193.612 198.92 193.112 198.8 192.672 198.54C192.232 198.3 191.872 197.94 191.612 197.48C191.352 197.04 191.232 196.52 191.232 195.94C191.232 195.36 191.352 194.84 191.612 194.38C191.872 193.94 192.232 193.58 192.672 193.34C193.112 193.1 193.612 192.96 194.172 192.96C195.012 192.96 195.692 193.24 196.212 193.8C196.732 194.36 196.992 195.06 196.992 195.94C196.992 196.84 196.712 197.56 196.192 198.1ZM202.519 200.48C202.999 200.96 203.679 201.2 204.559 201.2C205.239 201.2 205.879 201.06 206.479 200.78L206.199 198.8C205.799 198.94 205.479 199 205.259 199C204.619 199 204.319 198.62 204.319 197.82V185.96H201.819V198.22C201.819 199.24 202.039 200 202.519 200.48ZM215.707 191.66C214.947 191.02 213.887 190.68 212.547 190.68C211.727 190.68 210.967 190.8 210.247 191C209.527 191.22 208.887 191.5 208.367 191.82L208.947 193.8C209.987 193.1 211.027 192.74 212.107 192.74C212.847 192.74 213.407 192.92 213.787 193.26C214.147 193.62 214.347 194.1 214.347 194.7V194.9C212.787 194.94 211.507 195.06 210.547 195.28C209.567 195.5 208.847 195.84 208.367 196.32C207.887 196.8 207.667 197.42 207.667 198.2C207.667 199.14 207.947 199.88 208.547 200.42C209.147 200.96 209.947 201.22 210.947 201.22C211.687 201.22 212.367 201.08 212.967 200.78C213.567 200.48 214.027 200.08 214.367 199.6V201H216.847V194.62C216.847 193.3 216.467 192.3 215.707 191.66ZM213.607 198.8C213.107 199.18 212.527 199.36 211.847 199.36C211.327 199.36 210.947 199.26 210.667 199.02C210.387 198.78 210.267 198.46 210.267 198.06C210.267 197.5 210.567 197.1 211.167 196.86C211.767 196.62 212.827 196.48 214.347 196.44V197.12C214.347 197.86 214.087 198.42 213.607 198.8ZM228.67 190.88H226.07L223.67 197.76L221.01 190.88H218.27L222.37 200.6L221.99 201.52C221.75 202.06 221.47 202.44 221.13 202.66C220.79 202.88 220.39 202.98 219.91 202.98C219.59 202.98 219.27 202.94 218.99 202.82L218.69 204.96C219.17 205.16 219.73 205.24 220.37 205.24C221.33 205.24 222.13 205 222.75 204.52C223.35 204.04 223.85 203.28 224.25 202.26L228.67 190.88ZM4.22969 234.1C4.66969 234.26 5.24969 234.34 5.96969 234.34C6.92969 234.34 7.66969 234.06 8.14969 233.48C8.62969 232.9 8.88969 231.98 8.88969 230.74V219.88H6.38969V230.54C6.38969 231.12 6.28969 231.52 6.12969 231.74C5.96969 231.98 5.68969 232.08 5.32969 232.08C5.08969 232.08 4.84969 232.04 4.56969 231.96L4.22969 234.1ZM6.56969 217.74C6.84969 218.04 7.22969 218.18 7.66969 218.18C8.08969 218.18 8.44969 218.04 8.74969 217.74C9.02969 217.44 9.18969 217.08 9.18969 216.64C9.18969 216.22 9.02969 215.86 8.74969 215.56C8.44969 215.28 8.08969 215.12 7.66969 215.12C7.22969 215.12 6.84969 215.28 6.56969 215.56C6.26969 215.86 6.12969 216.22 6.12969 216.64C6.12969 217.08 6.26969 217.44 6.56969 217.74ZM13.8189 229.52C14.6589 229.98 15.5989 230.2 16.6789 230.2C17.7389 230.2 18.6789 229.98 19.5189 229.52C20.3589 229.08 20.9989 228.44 21.4589 227.64C21.9189 226.84 22.1589 225.94 22.1589 224.94C22.1589 223.94 21.9189 223.04 21.4589 222.24C20.9989 221.44 20.3589 220.82 19.5189 220.36C18.6789 219.92 17.7389 219.68 16.6789 219.68C15.5989 219.68 14.6589 219.92 13.8189 220.36C12.9789 220.82 12.3389 221.44 11.8789 222.24C11.3989 223.04 11.1789 223.94 11.1789 224.94C11.1789 225.94 11.3989 226.84 11.8789 227.64C12.3389 228.44 12.9789 229.08 13.8189 229.52ZM18.7789 227.08C18.2389 227.64 17.5389 227.9 16.6789 227.9C15.7989 227.9 15.0989 227.64 14.5589 227.08C14.0189 226.54 13.7589 225.82 13.7589 224.94C13.7589 224.06 14.0189 223.36 14.5589 222.8C15.0989 222.26 15.7989 221.98 16.6789 221.98C17.5189 221.98 18.2189 222.26 18.7589 222.8C19.2989 223.36 19.5789 224.06 19.5789 224.92C19.5789 225.8 19.2989 226.52 18.7789 227.08ZM33.917 219.88H31.417V225.28C31.417 226.12 31.177 226.78 30.717 227.26C30.257 227.74 29.637 227.98 28.877 227.98C28.157 227.98 27.637 227.78 27.317 227.34C26.997 226.92 26.837 226.26 26.837 225.34V219.88H24.337V226.3C24.337 227.58 24.637 228.56 25.237 229.22C25.837 229.9 26.697 230.22 27.837 230.22C28.617 230.22 29.317 230.08 29.937 229.76C30.557 229.44 31.057 228.98 31.417 228.38V230H33.917V219.88ZM43.0989 219.9C42.6589 219.74 42.2189 219.66 41.7989 219.66C40.6789 219.66 39.8389 220.28 39.3189 221.5V219.88H36.8389V230H39.3189V225.22C39.3189 223.14 40.0789 222.1 41.6389 222.1C41.9389 222.1 42.2989 222.18 42.6989 222.3L43.0989 219.9ZM53.2923 220.68C52.6923 220 51.7923 219.66 50.6323 219.66C49.8723 219.66 49.1723 219.84 48.5723 220.16C47.9523 220.48 47.4723 220.94 47.1123 221.54V219.88H44.6123V230H47.1123V224.6C47.1123 223.78 47.3323 223.12 47.7923 222.64C48.2323 222.16 48.8523 221.92 49.6323 221.92C50.3523 221.92 50.8723 222.14 51.2123 222.56C51.5323 223 51.7123 223.66 51.7123 224.54V230H54.2123V223.58C54.2123 222.32 53.8923 221.36 53.2923 220.68ZM66.3538 225.48V225.1C66.3538 224.02 66.1338 223.08 65.7338 222.26C65.3338 221.44 64.7538 220.8 64.0338 220.36C63.2938 219.92 62.4538 219.68 61.4938 219.68C60.5338 219.68 59.6538 219.92 58.8938 220.36C58.1138 220.8 57.4938 221.42 57.0538 222.22C56.6138 223.02 56.3938 223.94 56.3938 224.96C56.3938 225.96 56.6138 226.86 57.0538 227.66C57.4938 228.46 58.1338 229.08 58.9538 229.52C59.7538 229.98 60.6938 230.2 61.7538 230.2C62.5938 230.2 63.3738 230.1 64.0938 229.88C64.7938 229.66 65.3938 229.36 65.8938 229L65.2738 227.04C64.8538 227.36 64.3538 227.62 63.7938 227.82C63.2338 228.02 62.6338 228.1 62.0138 228.1C61.1138 228.1 60.3938 227.88 59.8538 227.42C59.3138 226.98 59.0138 226.32 58.9338 225.48H66.3538ZM63.8138 223.78H59.0138C59.1538 223.14 59.4538 222.62 59.8938 222.22C60.3338 221.82 60.8737 221.62 61.4938 221.62C62.0938 221.62 62.6138 221.82 63.0338 222.22C63.4538 222.62 63.7138 223.14 63.8138 223.78ZM77.2447 219.88H74.6447L72.2447 226.76L69.5847 219.88H66.8447L70.9447 229.6L70.5647 230.52C70.3247 231.06 70.0447 231.44 69.7047 231.66C69.3647 231.88 68.9647 231.98 68.4847 231.98C68.1647 231.98 67.8447 231.94 67.5647 231.82L67.2647 233.96C67.7447 234.16 68.3047 234.24 68.9447 234.24C69.9047 234.24 70.7047 234 71.3247 233.52C71.9247 233.04 72.4247 232.28 72.8247 231.26L77.2447 219.88ZM91.9056 220.66C91.3056 220 90.4056 219.66 89.2456 219.66C88.4456 219.66 87.7456 219.82 87.1456 220.14C86.5456 220.46 86.0656 220.9 85.7256 221.48V214.96H83.2256V230H85.7256V224.6C85.7256 223.78 85.9456 223.12 86.4056 222.64C86.8656 222.16 87.4856 221.9 88.2656 221.9C88.9456 221.9 89.4656 222.12 89.8056 222.54C90.1456 222.98 90.3256 223.64 90.3256 224.52V230H92.8256V223.56C92.8256 222.3 92.5056 221.34 91.9056 220.66ZM95.667 219.88V230H98.167V219.88H95.667ZM95.867 217.74C96.147 218.04 96.527 218.18 96.967 218.18C97.387 218.18 97.747 218.04 98.047 217.74C98.327 217.44 98.487 217.08 98.487 216.64C98.487 216.22 98.327 215.86 98.047 215.56C97.747 215.28 97.387 215.12 96.967 215.12C96.527 215.12 96.147 215.28 95.867 215.56C95.567 215.86 95.427 216.22 95.427 216.64C95.427 217.08 95.567 217.44 95.867 217.74ZM102.257 229.92C102.937 230.12 103.637 230.2 104.357 230.2C105.637 230.2 106.637 229.9 107.357 229.3C108.077 228.7 108.437 227.88 108.437 226.84C108.437 226 108.157 225.34 107.617 224.88C107.077 224.42 106.257 224.04 105.157 223.76C104.517 223.6 104.037 223.42 103.737 223.24C103.417 223.08 103.277 222.82 103.277 222.5C103.277 222.2 103.397 221.96 103.677 221.8C103.937 221.64 104.277 221.54 104.717 221.54C105.197 221.54 105.677 221.64 106.197 221.8C106.717 221.98 107.177 222.2 107.597 222.44L108.057 220.52C107.617 220.28 107.097 220.06 106.517 219.9C105.937 219.74 105.357 219.66 104.757 219.66C103.557 219.66 102.617 219.96 101.897 220.52C101.177 221.1 100.837 221.88 100.837 222.88C100.837 223.48 100.957 223.96 101.217 224.32C101.477 224.7 101.817 225 102.217 225.22C102.617 225.44 103.157 225.66 103.817 225.86C104.657 226.14 105.217 226.36 105.537 226.52C105.837 226.7 105.997 226.96 105.997 227.28C105.997 227.64 105.857 227.9 105.577 228.06C105.297 228.24 104.937 228.32 104.477 228.32C103.897 228.32 103.317 228.22 102.717 228C102.117 227.8 101.597 227.52 101.157 227.16L100.557 229.16C100.997 229.48 101.557 229.74 102.257 229.92ZM112.086 229.38C112.626 229.94 113.386 230.2 114.386 230.2C114.906 230.2 115.426 230.14 115.906 229.98C116.386 229.84 116.786 229.66 117.126 229.42L116.726 227.4C116.086 227.76 115.506 227.94 114.986 227.94C114.186 227.94 113.786 227.48 113.786 226.54V221.98H116.526V219.88H113.786V216.72L111.286 217.04V219.88H109.726V221.98H111.286V226.88C111.286 228 111.546 228.82 112.086 229.38ZM120.577 229.52C121.417 229.98 122.357 230.2 123.437 230.2C124.497 230.2 125.437 229.98 126.277 229.52C127.117 229.08 127.757 228.44 128.217 227.64C128.677 226.84 128.917 225.94 128.917 224.94C128.917 223.94 128.677 223.04 128.217 222.24C127.757 221.44 127.117 220.82 126.277 220.36C125.437 219.92 124.497 219.68 123.437 219.68C122.357 219.68 121.417 219.92 120.577 220.36C119.737 220.82 119.097 221.44 118.637 222.24C118.157 223.04 117.937 223.94 117.937 224.94C117.937 225.94 118.157 226.84 118.637 227.64C119.097 228.44 119.737 229.08 120.577 229.52ZM125.537 227.08C124.997 227.64 124.297 227.9 123.437 227.9C122.557 227.9 121.857 227.64 121.317 227.08C120.777 226.54 120.517 225.82 120.517 224.94C120.517 224.06 120.777 223.36 121.317 222.8C121.857 222.26 122.557 221.98 123.437 221.98C124.277 221.98 124.977 222.26 125.517 222.8C126.057 223.36 126.337 224.06 126.337 224.92C126.337 225.8 126.057 226.52 125.537 227.08ZM137.435 219.9C136.995 219.74 136.555 219.66 136.135 219.66C135.015 219.66 134.175 220.28 133.655 221.5V219.88H131.175V230H133.655V225.22C133.655 223.14 134.415 222.1 135.975 222.1C136.275 222.1 136.635 222.18 137.035 222.3L137.435 219.9ZM148.319 219.88H145.719L143.319 226.76L140.659 219.88H137.919L142.019 229.6L141.639 230.52C141.399 231.06 141.119 231.44 140.779 231.66C140.439 231.88 140.039 231.98 139.559 231.98C139.239 231.98 138.919 231.94 138.639 231.82L138.339 233.96C138.819 234.16 139.379 234.24 140.019 234.24C140.979 234.24 141.779 234 142.399 233.52C142.999 233.04 143.499 232.28 143.899 231.26L148.319 219.88ZM164.4 214.96H161.9V221.38C161.56 220.84 161.1 220.42 160.52 220.12C159.92 219.84 159.26 219.68 158.52 219.68C157.58 219.68 156.74 219.92 156 220.36C155.26 220.82 154.68 221.44 154.26 222.24C153.84 223.04 153.64 223.94 153.64 224.94C153.64 225.94 153.84 226.84 154.26 227.64C154.68 228.44 155.26 229.08 156 229.52C156.74 229.98 157.58 230.2 158.52 230.2C159.28 230.2 159.94 230.06 160.52 229.76C161.08 229.48 161.54 229.02 161.9 228.42V230.02H164.4V214.96ZM161.14 227.08C160.58 227.64 159.88 227.92 159.04 227.92C158.2 227.92 157.52 227.66 157 227.1C156.48 226.56 156.22 225.84 156.22 224.94C156.22 224.06 156.48 223.34 157 222.78C157.52 222.24 158.22 221.96 159.06 221.96C159.9 221.96 160.6 222.24 161.16 222.8C161.7 223.36 161.98 224.08 161.98 224.94C161.98 225.82 161.7 226.52 161.14 227.08ZM176.569 225.48V225.1C176.569 224.02 176.349 223.08 175.949 222.26C175.549 221.44 174.969 220.8 174.249 220.36C173.509 219.92 172.669 219.68 171.709 219.68C170.749 219.68 169.869 219.92 169.109 220.36C168.329 220.8 167.709 221.42 167.269 222.22C166.829 223.02 166.609 223.94 166.609 224.96C166.609 225.96 166.829 226.86 167.269 227.66C167.709 228.46 168.349 229.08 169.169 229.52C169.969 229.98 170.909 230.2 171.969 230.2C172.809 230.2 173.589 230.1 174.309 229.88C175.009 229.66 175.609 229.36 176.109 229L175.489 227.04C175.069 227.36 174.569 227.62 174.009 227.82C173.449 228.02 172.849 228.1 172.229 228.1C171.329 228.1 170.609 227.88 170.069 227.42C169.529 226.98 169.229 226.32 169.149 225.48H176.569ZM174.029 223.78H169.229C169.369 223.14 169.669 222.62 170.109 222.22C170.549 221.82 171.089 221.62 171.709 221.62C172.309 221.62 172.829 221.82 173.249 222.22C173.669 222.62 173.929 223.14 174.029 223.78ZM179.977 229.38C180.517 229.94 181.277 230.2 182.277 230.2C182.797 230.2 183.317 230.14 183.797 229.98C184.277 229.84 184.677 229.66 185.017 229.42L184.617 227.4C183.977 227.76 183.397 227.94 182.877 227.94C182.077 227.94 181.677 227.48 181.677 226.54V221.98H184.417V219.88H181.677V216.72L179.177 217.04V219.88H177.617V221.98H179.177V226.88C179.177 228 179.437 228.82 179.977 229.38ZM194.007 220.66C193.247 220.02 192.187 219.68 190.847 219.68C190.027 219.68 189.267 219.8 188.547 220C187.827 220.22 187.187 220.5 186.667 220.82L187.247 222.8C188.287 222.1 189.327 221.74 190.407 221.74C191.147 221.74 191.707 221.92 192.087 222.26C192.447 222.62 192.647 223.1 192.647 223.7V223.9C191.087 223.94 189.807 224.06 188.847 224.28C187.867 224.5 187.147 224.84 186.667 225.32C186.187 225.8 185.967 226.42 185.967 227.2C185.967 228.14 186.247 228.88 186.847 229.42C187.447 229.96 188.247 230.22 189.247 230.22C189.987 230.22 190.667 230.08 191.267 229.78C191.867 229.48 192.327 229.08 192.667 228.6V230H195.147V223.62C195.147 222.3 194.767 221.3 194.007 220.66ZM191.907 227.8C191.407 228.18 190.827 228.36 190.147 228.36C189.627 228.36 189.247 228.26 188.967 228.02C188.687 227.78 188.567 227.46 188.567 227.06C188.567 226.5 188.867 226.1 189.467 225.86C190.067 225.62 191.127 225.48 192.647 225.44V226.12C192.647 226.86 192.387 227.42 191.907 227.8ZM197.991 219.88V230H200.491V219.88H197.991ZM198.191 217.74C198.471 218.04 198.851 218.18 199.291 218.18C199.711 218.18 200.071 218.04 200.371 217.74C200.651 217.44 200.811 217.08 200.811 216.64C200.811 216.22 200.651 215.86 200.371 215.56C200.071 215.28 199.711 215.12 199.291 215.12C198.851 215.12 198.471 215.28 198.191 215.56C197.891 215.86 197.751 216.22 197.751 216.64C197.751 217.08 197.891 217.44 198.191 217.74ZM204.101 229.48C204.581 229.96 205.261 230.2 206.141 230.2C206.821 230.2 207.461 230.06 208.061 229.78L207.781 227.8C207.381 227.94 207.061 228 206.841 228C206.201 228 205.901 227.62 205.901 226.82V214.96H203.401V227.22C203.401 228.24 203.621 229 204.101 229.48ZM210.929 229.92C211.609 230.12 212.309 230.2 213.029 230.2C214.309 230.2 215.309 229.9 216.029 229.3C216.749 228.7 217.109 227.88 217.109 226.84C217.109 226 216.829 225.34 216.289 224.88C215.749 224.42 214.929 224.04 213.829 223.76C213.189 223.6 212.709 223.42 212.409 223.24C212.089 223.08 211.949 222.82 211.949 222.5C211.949 222.2 212.069 221.96 212.349 221.8C212.609 221.64 212.949 221.54 213.389 221.54C213.869 221.54 214.349 221.64 214.869 221.8C215.389 221.98 215.849 222.2 216.269 222.44L216.729 220.52C216.289 220.28 215.769 220.06 215.189 219.9C214.609 219.74 214.029 219.66 213.429 219.66C212.229 219.66 211.289 219.96 210.569 220.52C209.849 221.1 209.509 221.88 209.509 222.88C209.509 223.48 209.629 223.96 209.889 224.32C210.149 224.7 210.489 225 210.889 225.22C211.289 225.44 211.829 225.66 212.489 225.86C213.329 226.14 213.889 226.36 214.209 226.52C214.509 226.7 214.669 226.96 214.669 227.28C214.669 227.64 214.529 227.9 214.249 228.06C213.969 228.24 213.609 228.32 213.149 228.32C212.569 228.32 211.989 228.22 211.389 228C210.789 227.8 210.269 227.52 209.829 227.16L209.229 229.16C209.669 229.48 210.229 229.74 210.929 229.92ZM219.955 229.84C220.255 230.16 220.615 230.3 221.055 230.3C221.475 230.3 221.835 230.16 222.155 229.84C222.455 229.54 222.615 229.18 222.615 228.74C222.615 228.32 222.455 227.96 222.155 227.64C221.835 227.34 221.475 227.18 221.055 227.18C220.615 227.18 220.255 227.34 219.955 227.64C219.635 227.96 219.495 228.32 219.495 228.74C219.495 229.18 219.635 229.54 219.955 229.84Z" fill="#5A5C60"/>
<path fill-rule="evenodd" clip-rule="evenodd" d="M151.217 12.3907C151.987 12.3907 152.611 13.0156 152.611 13.7859V20.5793C152.611 21.3497 151.987 21.974 151.217 21.974H141.622C141.101 21.974 140.622 21.6825 140.383 21.2187C140.143 20.7544 140.183 20.1958 140.486 19.7699L145.318 12.9766V12.9771C145.579 12.6091 146.003 12.3906 146.455 12.3906L151.217 12.3907ZM149.821 15.1812H147.174L144.327 19.184H149.821V15.1812Z" fill="#ACB5BD"/>
<path fill-rule="evenodd" clip-rule="evenodd" d="M192.665 0.00176227C195.098 0.00176227 197.1 2.00387 197.1 4.4363V28.6535C197.1 31.0863 195.098 33.088 192.665 33.088H188.338C187.599 35.7082 185.18 37.6471 182.329 37.6471C179.48 37.6471 177.059 35.7097 176.32 33.088H151.923C151.184 35.7092 148.763 37.6471 145.915 37.6471C143.067 37.6471 140.646 35.7092 139.907 33.088H139.347C137.345 33.088 135.704 31.4382 135.704 29.4443V20.6104L135.703 20.6114C135.678 20.4123 135.696 20.2103 135.756 20.0191C135.764 19.9909 135.773 19.9631 135.783 19.9359C135.784 19.9334 135.784 19.9315 135.785 19.9291C135.785 19.9286 135.785 19.9286 135.785 19.9281C135.848 19.7519 135.946 19.5903 136.072 19.4526L143.522 9.11628C143.784 8.75273 144.204 8.53715 144.653 8.53715L153.686 8.53082V4.43454C153.686 2.00173 155.687 0 158.12 0H192.664L192.665 0.00176227ZM192.665 2.79225H158.121C157.206 2.79225 156.477 3.52177 156.477 4.43667V30.2984H176.188C176.714 27.3867 179.277 25.1582 182.33 25.1582C185.383 25.1582 187.945 27.3867 188.472 30.2984H192.666C193.581 30.2984 194.31 29.5693 194.31 28.6544V4.4373C194.31 3.52236 193.581 2.79288 192.666 2.79288L192.665 2.79225ZM153.687 11.3231L145.37 11.3284L138.495 20.868V29.4446C138.495 29.9162 138.87 30.2977 139.347 30.2977H139.774C140.3 27.386 142.863 25.1575 145.916 25.1575C148.969 25.1575 151.531 27.386 152.058 30.2977H153.687V11.3232L153.687 11.3231ZM182.329 27.9479C180.409 27.9479 178.879 29.4766 178.879 31.4057V31.4811C178.919 33.3645 180.431 34.8572 182.329 34.8572C184.251 34.8572 185.773 33.3344 185.78 31.4203V31.4096C185.78 29.48 184.249 27.9518 182.329 27.9518V27.9479ZM145.915 27.9479C143.995 27.9479 142.465 29.4766 142.465 31.4057C142.465 33.3261 143.995 34.8566 145.915 34.8566C147.836 34.8566 149.366 33.3261 149.366 31.4057C149.366 29.4761 147.835 27.9479 145.915 27.9479Z" fill="#ACB5BD"/>
<path fill-rule="evenodd" clip-rule="evenodd" d="M174.417 9.77744C174.79 9.77306 175.15 9.9176 175.415 10.1799C175.681 10.4422 175.83 10.7995 175.83 11.1727C175.83 11.546 175.681 11.9037 175.415 12.1655C175.15 12.4278 174.79 12.5729 174.417 12.568H160.734C160.361 12.5729 160.002 12.4278 159.736 12.1655C159.471 11.9037 159.321 11.546 159.321 11.1727C159.321 10.7995 159.471 10.4422 159.736 10.1799C160.002 9.9176 160.361 9.77307 160.734 9.77744H174.417Z" fill="#ACB5BD"/>
<path fill-rule="evenodd" clip-rule="evenodd" d="M180.675 16.0392C181.048 16.0348 181.408 16.1793 181.673 16.4416C181.938 16.704 182.088 17.0617 182.088 17.4344C182.088 17.8077 181.938 18.1654 181.673 18.4277C181.408 18.6896 181.048 18.8346 180.675 18.8297H160.731C160.358 18.8346 159.999 18.6896 159.733 18.4277C159.468 18.1654 159.318 17.8077 159.318 17.4344C159.318 17.0617 159.468 16.704 159.733 16.4416C159.999 16.1793 160.358 16.0348 160.731 16.0392H180.675Z" fill="#ACB5BD"/>
<path fill-rule="evenodd" clip-rule="evenodd" d="M193.632 38.8907C194.005 38.8863 194.365 39.0314 194.63 39.2932C194.896 39.5555 195.045 39.9132 195.045 40.286C195.045 40.6593 194.896 41.017 194.63 41.2788C194.365 41.5411 194.005 41.6861 193.632 41.6813H140.628C140.255 41.6862 139.896 41.5411 139.63 41.2788C139.365 41.017 139.215 40.6593 139.215 40.286C139.215 39.9132 139.365 39.5555 139.63 39.2932C139.896 39.0314 140.255 38.8863 140.628 38.8907H193.632Z" fill="#ACB5BD"/>
<path d="M62.1652 60.4629C54.1681 60.4722 46.5005 63.6534 40.8454 69.3082C35.1902 74.9631 32.0093 82.6308 32 90.628C32 106.619 59.1791 141.621 60.338 143.103C60.7772 143.667 61.4516 143.996 62.1664 143.996C62.8811 143.996 63.5555 143.667 63.9947 143.103C65.1528 141.621 92.3327 106.619 92.3327 90.628C92.3234 82.631 89.1422 74.9634 83.4874 69.3082C77.8325 63.6531 70.1648 60.4722 62.1675 60.4629H62.1652ZM62.1652 137.861C53.6335 126.547 36.6408 101.724 36.6408 90.628C36.6408 81.509 41.5054 73.0832 49.403 68.5233C57.3005 63.9644 67.0298 63.9644 74.9273 68.5233C82.8249 73.0832 87.6895 81.5093 87.6895 90.628C87.6895 101.718 70.6968 126.548 62.1652 137.861Z" fill="#ACB5BD"/>
<path d="M62.1647 72.0645C57.2413 72.0645 52.5196 74.0202 49.039 77.5019C45.5573 80.9825 43.6016 85.7041 43.6016 90.6276C43.6016 95.5511 45.5573 100.273 49.039 103.753C52.5196 107.235 57.2413 109.191 62.1647 109.191C67.0882 109.191 71.8099 107.235 75.2905 103.753C78.7722 100.273 80.7279 95.5511 80.7279 90.6276C80.7227 85.706 78.7649 80.9875 75.2844 77.508C71.8049 74.0274 67.0864 72.0695 62.1647 72.0645ZM62.1647 104.55C58.4717 104.55 54.9312 103.083 52.3196 100.473C49.7092 97.8612 48.2424 94.3206 48.2424 90.6276C48.2424 86.9346 49.7092 83.3941 52.3196 80.7825C54.9311 78.1721 58.4717 76.7052 62.1647 76.7052C65.8578 76.7052 69.3983 78.1721 72.0099 80.7825C74.6203 83.394 76.0871 86.9346 76.0871 90.6276C76.083 94.3185 74.6151 97.8583 72.0045 100.467C69.3951 103.078 65.8554 104.546 62.1647 104.55Z" fill="#ACB5BD"/>
<path d="M113.234 92.9492C111.953 92.9492 110.914 93.9882 110.914 95.2696C110.914 96.551 111.953 97.59 113.234 97.59H122.385C123.666 97.59 124.705 96.551 124.705 95.2696C124.705 93.9882 123.666 92.9492 122.385 92.9492H113.234Z" fill="#ACB5BD"/>
<path d="M120.438 23.3361H129.588C130.869 23.3361 131.908 22.2971 131.908 21.0157C131.908 19.7343 130.869 18.6953 129.588 18.6953H120.438C119.156 18.6953 118.117 19.7343 118.117 21.0157C118.117 22.2971 119.156 23.3361 120.438 23.3361Z" fill="#ACB5BD"/>
<path d="M83.8419 23.3361H92.9919C94.2733 23.3361 95.3123 22.2971 95.3123 21.0157C95.3123 19.7343 94.2733 18.6953 92.9919 18.6953H83.8419C82.5605 18.6953 81.5215 19.7343 81.5215 21.0157C81.5215 22.2971 82.5605 23.3361 83.8419 23.3361Z" fill="#ACB5BD"/>
<path d="M158.43 55.9258C157.944 55.5425 157.326 55.3695 156.713 55.4451C156.1 55.5207 155.541 55.8367 155.162 56.3256C154.783 56.8135 154.614 57.433 154.693 58.0462C154.773 58.6595 155.094 59.2158 155.585 59.5918C157.691 61.2306 159.337 63.3872 160.363 65.8508C160.866 67.0296 162.228 67.5786 163.407 67.0762C163.973 66.8349 164.42 66.3791 164.65 65.8083C164.88 65.2375 164.874 64.5994 164.632 64.0328C163.299 60.8413 161.162 58.0486 158.43 55.926L158.43 55.9258Z" fill="#ACB5BD"/>
<path d="M84.7286 51.1816C83.4472 51.1816 82.4082 52.2206 82.4082 53.502C82.4082 54.7834 83.4472 55.8224 84.7286 55.8224H93.8765C95.1579 55.8224 96.1969 54.7834 96.1969 53.502C96.1969 52.2206 95.1579 51.1816 93.8765 51.1816H84.7286Z" fill="#ACB5BD"/>
<path d="M102.139 23.3361H111.289C112.57 23.3361 113.609 22.2971 113.609 21.0157C113.609 19.7343 112.57 18.6953 111.289 18.6953H102.139C100.857 18.6953 99.8184 19.7343 99.8184 21.0157C99.8184 22.2971 100.857 23.3361 102.139 23.3361Z" fill="#ACB5BD"/>
<path d="M121.324 51.1816C120.043 51.1816 119.004 52.2206 119.004 53.502C119.004 54.7834 120.043 55.8224 121.324 55.8224H130.472C131.754 55.8224 132.793 54.7834 132.793 53.502C132.793 52.2206 131.754 51.1816 130.472 51.1816H121.324Z" fill="#ACB5BD"/>
<path d="M162.095 85.0171C162.348 85.1083 162.615 85.1549 162.885 85.1549C163.861 85.1559 164.733 84.5447 165.065 83.627C166.103 80.6592 166.616 77.5329 166.582 74.3889L166.578 73.8295C166.551 72.5564 165.503 71.5422 164.23 71.5588C162.956 71.5743 161.935 72.6144 161.941 73.8885L161.945 74.3889C161.98 76.9941 161.561 79.586 160.705 82.0472C160.27 83.2509 160.892 84.58 162.095 85.0171L162.095 85.0171Z" fill="#ACB5BD"/>
<path d="M131.533 92.9492C130.252 92.9492 129.213 93.9882 129.213 95.2696C129.213 96.551 130.252 97.59 131.533 97.59H140.683C141.965 97.59 143.004 96.551 143.004 95.2696C143.004 93.9882 141.965 92.9492 140.683 92.9492H131.533Z" fill="#ACB5BD"/>
<path d="M148.261 56.3094C148.864 56.4389 149.495 56.3229 150.012 55.9862C150.53 55.6506 150.892 55.1212 151.018 54.5173C151.145 53.9134 151.025 53.2836 150.686 52.7677C150.348 52.2518 149.817 51.8923 149.213 51.7691C147.294 51.3734 145.339 51.1765 143.38 51.1817H139.623C138.342 51.1817 137.303 52.2207 137.303 53.5021C137.303 54.7835 138.342 55.8225 139.623 55.8225H143.38C145.02 55.8163 146.656 55.98 148.261 56.3094L148.261 56.3094Z" fill="#ACB5BD"/>
<path d="M147.517 95.0675C147.838 96.3085 149.102 97.0554 150.343 96.7374C153.671 95.9191 156.758 94.3258 159.353 92.0863C160.308 91.2389 160.4 89.7793 159.558 88.8202C158.717 87.8599 157.258 87.7605 156.294 88.5965C154.246 90.3554 151.81 91.6048 149.188 92.2417C147.945 92.5618 147.199 93.8267 147.517 95.0676L147.517 95.0675Z" fill="#ACB5BD"/>
<path d="M103.025 51.1816C101.744 51.1816 100.705 52.2206 100.705 53.502C100.705 54.7834 101.744 55.8224 103.025 55.8224H112.173C113.455 55.8224 114.494 54.7834 114.494 53.502C114.494 52.2206 113.455 51.1816 112.173 51.1816H103.025Z" fill="#ACB5BD"/>
<path d="M60.4201 42.746C60.6584 43.8026 61.5979 44.5536 62.6815 44.5547C62.8545 44.5547 63.0264 44.535 63.1953 44.4977C64.4456 44.2149 65.2298 42.9718 64.947 41.7215C64.629 40.2557 64.4736 38.7598 64.485 37.2599C64.4787 36.021 64.5813 34.7831 64.7926 33.5619C65.0174 32.3012 64.1794 31.0964 62.9187 30.8707C61.658 30.645 60.4533 31.4819 60.2244 32.7416C59.9654 34.2333 59.838 35.7456 59.8442 37.2601C59.8328 39.104 60.0255 40.9449 60.4202 42.7463L60.4201 42.746Z" fill="#ACB5BD"/>
<path d="M68.7027 48.1998C68.2303 47.8051 67.6202 47.6145 67.0069 47.6694C66.3937 47.7243 65.8281 48.0206 65.4324 48.493C64.6109 49.476 64.7414 50.9397 65.7256 51.7622C68.4708 53.9655 71.801 55.3152 75.3055 55.6438C75.3987 55.6552 75.493 55.6603 75.5872 55.6603C76.8137 55.6593 77.8289 54.7032 77.9025 53.4777C77.975 52.2522 77.082 51.1822 75.8628 51.0351C73.2513 50.8093 70.7622 49.8241 68.7027 48.2L68.7027 48.1998Z" fill="#ACB5BD"/>
<path d="M66.553 27.4448C67.1517 27.4448 67.7277 27.2138 68.1597 26.7995C70.0823 25.0467 72.4979 23.928 75.0784 23.5944C76.3432 23.3893 77.203 22.197 76.9969 20.9322C76.7918 19.6674 75.5995 18.8076 74.3347 19.0127C70.8231 19.4902 67.5445 21.0399 64.9465 23.4493C64.2628 24.105 64.0463 25.1108 64.4006 25.9903C64.7538 26.8687 65.6064 27.4447 66.5532 27.4447L66.553 27.4448Z" fill="#ACB5BD"/>
<path d="M99.2911 97.59H103.932C105.213 97.59 106.252 96.551 106.252 95.2696C106.252 93.9882 105.213 92.9492 103.932 92.9492H99.2911C98.0097 92.9492 96.9707 93.9882 96.9707 95.2696C96.9707 96.551 98.0097 97.59 99.2911 97.59Z" fill="#ACB5BD"/>
<path d="M192.439 129.744H81.0601C79.5956 129.744 78.4082 130.932 78.4082 132.396C78.4082 133.86 79.5956 135.048 81.0601 135.048H192.439C193.904 135.048 195.091 133.86 195.091 132.396C195.091 130.932 193.904 129.744 192.439 129.744Z" fill="#ACB5BD"/>
<path d="M45.9224 130.074H34.3204C33.039 130.074 32 131.113 32 132.395C32 133.676 33.039 134.715 34.3204 134.715H45.9224C47.2038 134.715 48.2428 133.676 48.2428 132.395C48.2428 131.113 47.2038 130.074 45.9224 130.074Z" fill="#ACB5BD"/>
<path d="M90.0081 137.037H85.3673C84.0859 137.037 83.0469 138.076 83.0469 139.358C83.0469 140.639 84.0859 141.678 85.3673 141.678H90.0081C91.2895 141.678 92.3285 140.639 92.3285 139.358C92.3285 138.076 91.2895 137.037 90.0081 137.037Z" fill="#ACB5BD"/>
<path d="M103.932 137.037H99.2911C98.0097 137.037 96.9707 138.076 96.9707 139.358C96.9707 140.639 98.0097 141.678 99.2911 141.678H103.932C105.213 141.678 106.252 140.639 106.252 139.358C106.252 138.076 105.213 137.037 103.932 137.037Z" fill="#ACB5BD"/>
<path d="M117.854 137.037H113.213C111.932 137.037 110.893 138.076 110.893 139.358C110.893 140.639 111.932 141.678 113.213 141.678H117.854C119.135 141.678 120.174 140.639 120.174 139.358C120.174 138.076 119.135 137.037 117.854 137.037Z" fill="#ACB5BD"/>
<path d="M131.778 137.037H127.137C125.855 137.037 124.816 138.076 124.816 139.358C124.816 140.639 125.855 141.678 127.137 141.678H131.778C133.059 141.678 134.098 140.639 134.098 139.358C134.098 138.076 133.059 137.037 131.778 137.037Z" fill="#ACB5BD"/>
<path d="M145.699 137.037H141.059C139.777 137.037 138.738 138.076 138.738 139.358C138.738 140.639 139.777 141.678 141.059 141.678H145.699C146.981 141.678 148.02 140.639 148.02 139.358C148.02 138.076 146.981 137.037 145.699 137.037Z" fill="#ACB5BD"/>
<path d="M159.621 137.037H154.981C153.699 137.037 152.66 138.076 152.66 139.358C152.66 140.639 153.699 141.678 154.981 141.678H159.621C160.903 141.678 161.942 140.639 161.942 139.358C161.942 138.076 160.903 137.037 159.621 137.037Z" fill="#ACB5BD"/>
<path d="M173.543 137.037H168.902C167.621 137.037 166.582 138.076 166.582 139.358C166.582 140.639 167.621 141.678 168.902 141.678H173.543C174.825 141.678 175.864 140.639 175.864 139.358C175.864 138.076 174.825 137.037 173.543 137.037Z" fill="#ACB5BD"/>
<path d="M187.467 137.104H182.826C181.545 137.104 180.506 138.143 180.506 139.424C180.506 140.705 181.545 141.744 182.826 141.744H187.467C188.748 141.744 189.787 140.705 189.787 139.424C189.787 138.143 188.748 137.104 187.467 137.104Z" fill="#ACB5BD"/>
<path d="M43.6018 137.037H38.961C37.6796 137.037 36.6406 138.076 36.6406 139.358C36.6406 140.639 37.6796 141.678 38.961 141.678H43.6018C44.8832 141.678 45.9222 140.639 45.9222 139.358C45.9222 138.076 44.8832 137.037 43.6018 137.037Z" fill="#ACB5BD"/>
<path d="M159.621 104.551C159.621 103.269 158.582 102.23 157.301 102.23C156.019 102.23 154.98 103.269 154.98 104.551V109.192C154.98 110.473 156.019 111.512 157.301 111.512C158.582 111.512 159.621 110.473 159.621 109.192V104.551Z" fill="#ACB5BD"/>
<path d="M157.301 125.434C157.916 125.434 158.507 125.189 158.942 124.754C159.377 124.319 159.621 123.729 159.621 123.114V118.473C159.621 117.191 158.582 116.152 157.301 116.152C156.019 116.152 154.98 117.191 154.98 118.473V123.114C154.98 123.729 155.225 124.319 155.66 124.754C156.095 125.189 156.686 125.434 157.301 125.434Z" fill="#ACB5BD"/>
<path d="M161.941 116.153H166.582C167.864 116.153 168.903 115.114 168.903 113.832C168.903 112.551 167.864 111.512 166.582 111.512H161.941C160.66 111.512 159.621 112.551 159.621 113.832C159.621 115.114 160.66 116.153 161.941 116.153Z" fill="#ACB5BD"/>
<path d="M148.02 116.153H152.66C153.942 116.153 154.981 115.114 154.981 113.832C154.981 112.551 153.942 111.512 152.66 111.512H148.02C146.738 111.512 145.699 112.551 145.699 113.832C145.699 115.114 146.738 116.153 148.02 116.153Z" fill="#ACB5BD"/>
<path d="M48.2423 9.4144C48.8576 9.4144 49.4481 9.16993 49.8831 8.73486C50.3182 8.29978 50.5627 7.70932 50.5627 7.094V2.45321C50.5627 1.17182 49.5237 0.132812 48.2423 0.132812C46.9609 0.132812 45.9219 1.17182 45.9219 2.45321V7.094C45.9219 7.70932 46.1663 8.29979 46.6014 8.73486C47.0365 9.16992 47.627 9.4144 48.2423 9.4144Z" fill="#ACB5BD"/>
<path d="M48.2423 14.0547C47.627 14.0547 47.0365 14.2992 46.6014 14.7342C46.1664 15.1693 45.9219 15.7598 45.9219 16.3751V21.0159C45.9219 22.2973 46.9609 23.3363 48.2423 23.3363C49.5237 23.3363 50.5627 22.2973 50.5627 21.0159V16.3751C50.5627 15.7598 50.3182 15.1693 49.8831 14.7342C49.4481 14.2992 48.8576 14.0547 48.2423 14.0547Z" fill="#ACB5BD"/>
<path d="M52.8829 14.0549H57.5237C58.8051 14.0549 59.8441 13.0158 59.8441 11.7345C59.8441 10.4531 58.8051 9.41406 57.5237 9.41406H52.8829C51.6015 9.41406 50.5625 10.4531 50.5625 11.7345C50.5625 13.0158 51.6015 14.0549 52.8829 14.0549Z" fill="#ACB5BD"/>
<path d="M38.961 14.0549H43.6018C44.8832 14.0549 45.9222 13.0158 45.9222 11.7345C45.9222 10.4531 44.8832 9.41406 43.6018 9.41406H38.961C37.6796 9.41406 36.6406 10.4531 36.6406 11.7345C36.6406 13.0158 37.6796 14.0549 38.961 14.0549Z" fill="#ACB5BD"/>
</svg>
