<svg width="54" height="54" viewBox="0 0 54 54" fill="none" xmlns="http://www.w3.org/2000/svg">
<rect opacity="0.1" x="0.461538" y="0.461538" width="53.0769" height="53.0769" rx="26.5385" fill="#F73164" stroke="#F73164" stroke-width="0.923077"/>
<path d="M27 21.6667C24.7907 21.6667 23 22.86 23 24.3333C23 25.8067 24.7907 27 27 27C29.2093 27 31 28.1933 31 29.6667C31 31.14 29.2093 32.3333 27 32.3333M27 21.6667C28.48 21.6667 29.7733 22.2027 30.4653 23M27 21.6667V20.3333M27 21.6667V32.3333M27 32.3333V33.6667M27 32.3333C25.52 32.3333 24.2267 31.7973 23.5347 31M39 27C39 28.5759 38.6896 30.1363 38.0866 31.5922C37.4835 33.0481 36.5996 34.371 35.4853 35.4853C34.371 36.5996 33.0481 37.4835 31.5922 38.0866C30.1363 38.6896 28.5759 39 27 39C25.4241 39 23.8637 38.6896 22.4078 38.0866C20.9519 37.4835 19.629 36.5996 18.5147 35.4853C17.4004 34.371 16.5165 33.0481 15.9134 31.5922C15.3104 30.1363 15 28.5759 15 27C15 23.8174 16.2643 20.7652 18.5147 18.5147C20.7652 16.2643 23.8174 15 27 15C30.1826 15 33.2348 16.2643 35.4853 18.5147C37.7357 20.7652 39 23.8174 39 27Z" stroke="#F73164" stroke-width="2" stroke-linecap="round" stroke-linejoin="round"/>
</svg>
