<svg width="52" height="52" viewBox="0 0 52 52" fill="none" xmlns="http://www.w3.org/2000/svg">
<rect width="52" height="52" rx="14" fill="#E87882"/>
<path d="M30.3 27.6C30.7167 27.6 31.0875 27.4375 31.4125 27.1125C31.7375 26.7875 31.9 26.4125 31.9 25.9875C31.9 25.5625 31.7375 25.1917 31.4125 24.875C31.0875 24.5583 30.7167 24.4 30.3 24.4C29.8833 24.4 29.5125 24.5583 29.1875 24.875C28.8625 25.1917 28.7 25.5625 28.7 25.9875C28.7 26.4125 28.8625 26.7875 29.1875 27.1125C29.5125 27.4375 29.8833 27.6 30.3 27.6ZM18.5 32.175V33.5V18.5V32.175ZM18.5 35C18.1167 35 17.7708 34.85 17.4625 34.55C17.1542 34.25 17 33.9 17 33.5V18.5C17 18.1167 17.1542 17.7708 17.4625 17.4625C17.7708 17.1542 18.1167 17 18.5 17H33.5C33.9 17 34.25 17.1542 34.55 17.4625C34.85 17.7708 35 18.1167 35 18.5V21.85H33.5V18.5H18.5V33.5H33.5V30.175H35V33.5C35 33.9 34.85 34.25 34.55 34.55C34.25 34.85 33.9 35 33.5 35H18.5ZM27.45 30.675C26.8833 30.675 26.4333 30.5083 26.1 30.175C25.7667 29.8417 25.6 29.4 25.6 28.85V23.175C25.6 22.6083 25.7667 22.1625 26.1 21.8375C26.4333 21.5125 26.8833 21.35 27.45 21.35H34.2C34.7667 21.35 35.2167 21.5125 35.55 21.8375C35.8833 22.1625 36.05 22.6083 36.05 23.175V28.85C36.05 29.4 35.8833 29.8417 35.55 30.175C35.2167 30.5083 34.7667 30.675 34.2 30.675H27.45Z" fill="white"/>
</svg>
