<svg width="80" height="80" viewBox="0 0 80 80" fill="none" xmlns="http://www.w3.org/2000/svg">
<circle cx="40" cy="40" r="40" fill="#CEC9FF"/>
<path d="M71.3724 18.8242L39.4396 50.9811L26.6665 38.1183" stroke="#7366FF" stroke-width="3.92157" stroke-linecap="round"/>
<path d="M19.3646 63.7097C19.1537 63.6198 19.0233 63.4051 19.041 63.1766C19.29 59.9785 18.8848 58.9709 16.4917 56.8351C16.321 56.6823 16.2662 56.4374 16.3562 56.2263C16.4462 56.0155 16.6609 55.8853 16.8893 55.903C20.0874 56.152 21.095 55.7468 23.2308 53.3537C23.3835 53.1825 23.6286 53.128 23.8396 53.218C24.0507 53.308 24.1805 53.5224 24.1631 53.7513C23.9142 56.9493 24.3194 57.9568 26.7124 60.0928C26.8832 60.2454 26.9379 60.4905 26.848 60.7014C26.7579 60.9124 26.5433 61.0424 26.3148 61.0249C23.1166 60.7761 22.1092 61.1809 19.9733 63.5743C19.8202 63.7451 19.5755 63.7997 19.3646 63.7097Z" fill="white"/>
</svg>
