<svg width="4" height="4" viewBox="0 0 4 4" fill="none" xmlns="http://www.w3.org/2000/svg">
<path d="M2.00004 3.66671C1.07954 3.66671 0.333374 2.92054 0.333374 2.00004C0.333374 1.07954 1.07954 0.333374 2.00004 0.333374C2.92054 0.333374 3.66671 1.07954 3.66671 2.00004C3.66671 2.92054 2.92054 3.66671 2.00004 3.66671ZM2.00004 2.50004C2.13265 2.50004 2.25983 2.44736 2.35359 2.35359C2.44736 2.25983 2.50004 2.13265 2.50004 2.00004C2.50004 1.86743 2.44736 1.74026 2.35359 1.64649C2.25983 1.55272 2.13265 1.50004 2.00004 1.50004C1.86743 1.50004 1.74026 1.55272 1.64649 1.64649C1.55272 1.74026 1.50004 1.86743 1.50004 2.00004C1.50004 2.13265 1.55272 2.25983 1.64649 2.35359C1.74026 2.44736 1.86743 2.50004 2.00004 2.50004Z" fill="#718096"/>
</svg>
