<svg width="75" height="40" viewBox="0 0 75 40" fill="none" xmlns="http://www.w3.org/2000/svg">
<g clip-path="url(#clip0_2618_29783)">
<path d="M15.3616 22.9447C15.4659 22.9569 15.5708 22.9633 15.6758 22.9639H21.5385C21.6422 22.9632 21.7458 22.9568 21.8489 22.9447C22.3703 22.8705 22.8504 22.6195 23.2089 22.2337C23.5674 21.8479 23.7826 21.3507 23.8185 20.8253C23.8544 20.2998 23.7088 19.778 23.4061 19.347C23.1034 18.9161 22.6619 18.6021 22.1554 18.4577C22.0558 18.4309 21.9523 18.4155 21.8489 18.3925L21.5385 18.3734H15.6758C15.466 18.3723 15.2571 18.4007 15.0551 18.4577C14.8534 18.5152 14.6602 18.5989 14.4803 18.7067C14.0762 18.954 13.7584 19.3201 13.5702 19.7549C13.3821 20.1897 13.3329 20.6721 13.4294 21.1359C13.5258 21.5998 13.7632 22.0225 14.1091 22.3462C14.455 22.67 14.8925 22.879 15.3616 22.9447Z" fill="#FF9305"/>
<path d="M1.98103 4.57134C2.08448 4.57134 2.18795 4.57134 2.2914 4.59433H8.15403C8.25749 4.59433 8.36478 4.59433 8.46824 4.57134C8.67577 4.54405 8.87834 4.48728 9.06983 4.40274C9.50385 4.21287 9.86862 3.89356 10.1143 3.48848C10.3599 3.0834 10.4744 2.61233 10.4421 2.13969C10.4098 1.66706 10.2323 1.21594 9.93385 0.848035C9.6354 0.480127 9.2306 0.213396 8.77478 0.0843206C8.67516 0.0574981 8.5717 0.0421717 8.46824 0.019181H8.15403H2.2914C2.08284 0.0183944 1.87519 0.0467663 1.67449 0.103478C1.47282 0.160977 1.27958 0.244716 1.09972 0.352544C0.695601 0.599821 0.377743 0.965908 0.189624 1.40073C0.00150429 1.83555 -0.0476923 2.31786 0.0487674 2.78171C0.145227 3.24556 0.38263 3.66827 0.728503 3.99205C1.07438 4.31582 1.51183 4.52483 1.98103 4.5905V4.57134Z" fill="#FF9305"/>
<path d="M7.12328 18.4577C7.02365 18.4309 6.92019 18.4155 6.81673 18.3925L6.50636 18.3734H3.33747C3.12763 18.3723 2.91868 18.4007 2.71672 18.4577C2.51506 18.5152 2.32181 18.5989 2.14196 18.7067C1.73784 18.954 1.41998 19.3201 1.23186 19.7549C1.04374 20.1897 0.994544 20.6721 1.091 21.1359C1.18746 21.5998 1.42487 22.0225 1.77074 22.3462C2.11661 22.67 2.55407 22.879 3.02326 22.9447C3.12756 22.9569 3.23246 22.9633 3.33747 22.9639H6.50636C6.61009 22.9632 6.71371 22.9568 6.81673 22.9447C7.02512 22.9156 7.22872 22.8589 7.42215 22.7761C7.8561 22.5859 8.22068 22.2663 8.46603 21.8609C8.71137 21.4556 8.82549 20.9844 8.79278 20.5117C8.76006 20.039 8.58211 19.588 8.28327 19.2203C7.98442 18.8527 7.57929 18.5863 7.12328 18.4577Z" fill="#FF9305"/>
<path d="M18.5803 35.4938C18.4795 35.4662 18.3771 35.4445 18.2738 35.4287L17.9596 35.4057H14.7907C14.5807 35.4066 14.3719 35.4362 14.17 35.4938C13.9683 35.5481 13.7759 35.632 13.599 35.7429C13.2035 35.9931 12.8938 36.358 12.7112 36.789C12.5286 37.2199 12.4819 37.6962 12.5773 38.1544C12.6727 38.6126 12.9056 39.0307 13.245 39.353C13.5844 39.6753 14.014 39.8863 14.4765 39.9579C14.5838 39.9579 14.6872 39.9579 14.7907 39.9809H17.9596C18.063 39.9809 18.1703 39.9809 18.2738 39.9579C18.4813 39.9306 18.6839 39.8738 18.8754 39.7893C19.308 39.5987 19.6714 39.2794 19.916 38.8748C20.1607 38.4702 20.2746 38.0001 20.2423 37.5284C20.2101 37.0567 20.0332 36.6065 19.7358 36.239C19.4384 35.8715 19.0349 35.6046 18.5803 35.4747V35.4938Z" fill="#FF9305"/>
<path d="M74.306 10.8516C74.306 10.8325 74.306 10.8133 74.306 10.7942C74.306 10.775 74.306 10.6792 74.306 10.6256C74.2516 10.2695 74.0929 9.93747 73.85 9.67143C73.7617 9.57314 73.6598 9.48798 73.5473 9.41854L73.463 9.36106L73.4324 9.3419L57.6416 0.218423C57.5611 0.180105 57.4807 0.134122 57.4002 0.103468C57.2336 0.0373816 57.0578 -0.00268116 56.8791 -0.0153166H17.9673C17.7575 -0.0156706 17.5486 0.0126929 17.3465 0.0689832C17.1461 0.126504 16.9541 0.210251 16.7756 0.31805C16.3715 0.565326 16.0536 0.931411 15.8655 1.36623C15.6774 1.80105 15.6282 2.28337 15.7247 2.74722C15.8211 3.21106 16.0585 3.63378 16.4044 3.95755C16.7503 4.28132 17.1877 4.49034 17.6569 4.556C17.7604 4.556 17.8638 4.556 17.9673 4.57899H28.635L29.0182 4.61348C29.0948 4.61348 29.1753 4.6403 29.2519 4.66329C29.7077 4.79237 30.1125 5.0591 30.411 5.42701C30.7094 5.79491 30.8869 6.24603 30.9192 6.71867C30.9515 7.1913 30.837 7.66237 30.5914 8.06745C30.3457 8.47253 29.981 8.79184 29.5469 8.98172C29.3542 9.06279 29.1521 9.11943 28.9454 9.15031C28.8419 9.15031 28.7346 9.15031 28.6311 9.16947H2.29145C2.08271 9.16998 1.87507 9.19964 1.67454 9.2576C1.4717 9.3118 1.27801 9.39573 1.09977 9.50667C0.697098 9.7545 0.380628 10.1204 0.193485 10.5547C0.00634288 10.9889 -0.042371 11.4702 0.0539797 11.9331C0.15033 12.396 0.387063 12.818 0.731915 13.1414C1.07677 13.4649 1.51296 13.6742 1.98107 13.7408C2.08453 13.7408 2.188 13.7408 2.29145 13.7638H34.0033L34.3865 13.7983L34.6202 13.8481C35.076 13.9772 35.4808 14.2439 35.7793 14.6118C36.0777 14.9797 36.2552 15.4308 36.2875 15.9035C36.3198 16.3761 36.2053 16.8472 35.9597 17.2522C35.7141 17.6573 35.3493 17.9766 34.9153 18.1665C34.7238 18.251 34.5212 18.3078 34.3137 18.3351C34.2102 18.3351 34.1029 18.3351 33.9995 18.3581H29.3094C29.0995 18.357 28.8906 18.3854 28.6886 18.4424C28.487 18.4999 28.2937 18.5836 28.1139 18.6915C27.7097 18.9387 27.3919 19.3048 27.2038 19.7396C27.0156 20.1745 26.9664 20.6568 27.0629 21.1206C27.1594 21.5845 27.3968 22.0072 27.7426 22.331C28.0885 22.6547 28.526 22.8637 28.9952 22.9294C29.0995 22.9416 29.2044 22.948 29.3094 22.9486H40.935C41.4248 22.9486 41.8946 22.754 42.241 22.4076C42.5873 22.0613 42.7819 21.5915 42.7819 21.1016V14.5876C42.7815 14.5265 42.7973 14.4664 42.8278 14.4134C42.8582 14.3604 42.9022 14.3164 42.9552 14.286C43.0082 14.2556 43.0684 14.2398 43.1295 14.2403C43.1906 14.2408 43.2505 14.2575 43.303 14.2887L51.4226 18.9942C52.4983 19.6152 53.391 20.5091 54.0107 21.5856C54.6303 22.662 54.9549 23.883 54.9517 25.125V29.2327C54.952 29.8293 54.7954 30.4155 54.4974 30.9324C54.1994 31.4492 53.7706 31.8785 53.2541 32.1772C52.7377 32.4758 52.1517 32.6332 51.5551 32.6336C50.9585 32.634 50.3723 32.4773 49.8554 32.1793L43.1728 28.3131C43.0596 28.2485 42.9612 28.161 42.884 28.056C42.8067 27.9511 42.7524 27.8311 42.7245 27.7038C42.6387 27.288 42.4117 26.9148 42.082 26.6473C41.7524 26.3798 41.3404 26.2346 40.9158 26.2362H11.8518C11.642 26.2359 11.4331 26.2642 11.231 26.3205C11.0306 26.3781 10.8386 26.4618 10.6601 26.5696C10.256 26.8166 9.93813 27.1824 9.74982 27.6169C9.56151 28.0515 9.51198 28.5335 9.608 28.9973C9.70402 29.461 9.9409 29.8838 10.2863 30.2078C10.6316 30.5318 11.0686 30.7413 11.5375 30.8076C11.641 30.8076 11.7483 30.8076 11.8518 30.8305H31.459L31.8422 30.865C31.9188 30.865 31.9993 30.8919 32.0759 30.9149C32.5317 31.0439 32.9365 31.3107 33.235 31.6786C33.5334 32.0465 33.7109 32.4976 33.7432 32.9702C33.7755 33.4429 33.661 33.9139 33.4154 34.319C33.1698 34.7241 32.805 35.0434 32.371 35.2333C32.1783 35.3143 31.9762 35.371 31.7694 35.4019C31.6659 35.4019 31.5586 35.4019 31.4552 35.421H25.6692C25.4604 35.4215 25.2528 35.4512 25.0523 35.5092C24.8494 35.5634 24.6557 35.6473 24.4775 35.7582C24.0819 36.0087 23.7722 36.3739 23.5899 36.8051C23.4075 37.2363 23.3611 37.713 23.4569 38.1712C23.5528 38.6295 23.7862 39.0476 24.1261 39.3696C24.4659 39.6916 24.896 39.9022 25.3588 39.9732C25.4623 39.9732 25.5657 39.9732 25.6692 39.9962H56.8982L57.04 39.977C57.1708 39.9571 57.2992 39.9237 57.4232 39.8774L57.5496 39.8161H57.5688C57.7041 39.7575 57.8326 39.6843 57.952 39.5977L73.4324 30.662C73.5052 30.6121 73.5818 30.5662 73.6508 30.5125C73.9312 30.286 74.139 29.9823 74.2485 29.6389C74.3008 29.4675 74.3266 29.2892 74.3252 29.1101V10.8516H74.306ZM57.3542 4.20348L68.4664 10.6217C68.5133 10.649 68.5522 10.6882 68.5793 10.7352C68.6063 10.7823 68.6206 10.8357 68.6206 10.8899C68.6206 10.9442 68.6063 10.9976 68.5793 11.0446C68.5522 11.0917 68.5133 11.1309 68.4664 11.1582L66.2861 12.4188C66.1025 12.5244 65.8944 12.5799 65.6826 12.5799C65.4708 12.5799 65.2627 12.5244 65.0791 12.4188L54.0167 6.03124C53.9634 6.00074 53.919 5.95667 53.8882 5.90351C53.8573 5.85035 53.8411 5.78999 53.8411 5.72853C53.8411 5.66707 53.8573 5.6067 53.8882 5.55354C53.919 5.50038 53.9634 5.45632 54.0167 5.42582L56.1319 4.20348C56.3181 4.09731 56.5287 4.04147 56.743 4.04147C56.9574 4.04147 57.168 4.09731 57.3542 4.20348ZM56.1319 17.5802L45.0695 11.1927C45.0171 11.1614 44.9737 11.117 44.9436 11.064C44.9135 11.0109 44.8976 10.951 44.8976 10.8899C44.8976 10.8289 44.9135 10.769 44.9436 10.7159C44.9737 10.6628 45.0171 10.6185 45.0695 10.5872L47.1885 9.36873C47.3736 9.2614 47.5838 9.20488 47.7977 9.20488C48.0117 9.20488 48.2219 9.2614 48.407 9.36873L59.5192 15.7831C59.566 15.811 59.6048 15.8505 59.6318 15.8979C59.6587 15.9452 59.6729 15.9988 59.6729 16.0533C59.6729 16.1078 59.6587 16.1613 59.6318 16.2087C59.6048 16.256 59.566 16.2956 59.5192 16.3234L57.335 17.5802C57.1519 17.6851 56.9445 17.7403 56.7335 17.7403C56.5224 17.7403 56.315 17.6851 56.1319 17.5802ZM70.7195 27.5927C70.7194 27.7379 70.6812 27.8806 70.6085 28.0064C70.5359 28.1322 70.4314 28.2366 70.3056 28.3092L59.7721 34.3941C59.6464 34.4658 59.5041 34.5033 59.3594 34.5028C59.2146 34.5023 59.0726 34.4639 58.9474 34.3914C58.8221 34.3189 58.7181 34.2148 58.6456 34.0896C58.5732 33.9643 58.5348 33.8223 58.5344 33.6776V21.5078C58.5339 21.363 58.572 21.2206 58.6447 21.0954C58.7175 20.9701 58.8222 20.8665 58.9482 20.7951L61.7876 19.1551C61.7876 21.2664 61.7876 24.2744 61.7876 25.7803C61.7883 25.8759 61.8141 25.9697 61.8623 26.0522C61.9105 26.1348 61.9795 26.2034 62.0625 26.251C62.1454 26.2987 62.2393 26.3238 62.3349 26.3239C62.4306 26.324 62.5246 26.2991 62.6076 26.2516L67.0295 23.7341C67.1643 23.6567 67.2765 23.5451 67.3545 23.4105C67.4325 23.276 67.4737 23.1233 67.4739 22.9677V15.8713L69.4856 14.7217C69.6113 14.65 69.7536 14.6126 69.8983 14.613C70.043 14.6135 70.1851 14.6519 70.3103 14.7244C70.4356 14.7969 70.5396 14.901 70.6121 15.0262C70.6845 15.1515 70.7229 15.2936 70.7233 15.4383L70.7195 27.5927Z" fill="#7366FF"/>
</g>
<defs>
<clipPath id="clip0_2618_29783">
<rect width="74.3098" height="40" fill="white"/>
</clipPath>
</defs>
</svg>
