<svg width="867" height="332" xmlns="http://www.w3.org/2000/svg" xmlns:xlink="http://www.w3.org/1999/xlink" overflow="hidden"><defs><clipPath id="clip0"><rect x="261" y="174" width="867" height="332"/></clipPath></defs><g clip-path="url(#clip0)" transform="translate(-261 -174)"><path d="M456.601 357.222 455.821 357.308C447.642 358.023 439.174 358.399 430.5 358.399 421.827 358.399 413.358 358.023 405.18 357.308L404.399 357.222 404.247 361.044C404.247 397.933 416.001 427.838 430.5 427.838 444.999 427.838 456.753 397.933 456.753 361.044ZM555.857 302.315 556.138 304.699C556.138 326.942 524.498 346.027 479.404 354.179L470.987 355.496 471.219 361.044C471.219 408.598 457.261 448.274 438.706 457.45L434.945 458.837 445.354 458.46C518.614 453.126 575.782 408.769 575.782 354.84 575.782 337.312 569.744 320.796 559.077 306.303ZM305.143 302.314 301.923 306.303C291.256 320.796 285.218 337.312 285.218 354.84 285.218 408.769 342.386 453.126 415.646 458.46L426.055 458.837 422.294 457.45C403.739 448.274 389.781 408.598 389.781 361.044L390.013 355.496 381.596 354.179C336.502 346.027 304.862 326.942 304.862 304.699ZM430.5 294.251C421.438 294.251 413.449 305.932 408.731 323.699L406.424 334.51 410.119 334.918C416.703 335.398 423.519 335.649 430.5 335.649 437.481 335.649 444.297 335.398 450.881 334.918L454.576 334.51 452.269 323.699C447.551 305.932 439.562 294.251 430.5 294.251ZM436.763 263.922 438.706 264.639C451.96 271.193 462.868 293.308 468.019 322.741L469.321 332.882 469.863 332.822C506.159 327.361 531.627 314.575 531.627 299.673 531.627 282.288 496.962 267.783 450.881 264.428ZM424.237 263.922 410.119 264.428C364.038 267.783 329.373 282.288 329.373 299.673 329.373 314.575 354.841 327.361 391.137 332.822L391.679 332.882 392.981 322.741C398.133 293.308 409.04 271.193 422.294 264.639ZM430.5 251C469.531 251 504.405 258.607 527.449 270.542L529.645 271.797 529.687 271.815C571.7 291.442 599 323.215 599 359.072 599 418.679 523.56 467 430.5 467 337.44 467 262 418.679 262 359.072 262 323.215 289.3 291.442 331.313 271.815L331.355 271.797 333.551 270.542C356.595 258.607 391.469 251 430.5 251Z" fill="#FF0000" fill-rule="evenodd"/><text font-family="Arial Narrow,Arial Narrow_MSFontService,sans-serif" font-weight="400" font-stretch="condensed" font-size="97" transform="translate(607.611 425)">INDONESIA<tspan fill="#FF0000" font-family="Calibri,Calibri_MSFontService,sans-serif" font-weight="700" font-stretch="normal" font-size="133" x="3.72827" y="-86">TOYOTA</tspan><tspan font-family="Calibri,Calibri_MSFontService,sans-serif" font-stretch="normal" font-size="25" x="5.59247" y="40">PT. Toyota Motor Manufacturing Indonesia</tspan></text><path d="M614.5 436.5 1050.34 436.5" stroke="#262626" stroke-width="0.666667" stroke-miterlimit="8" fill="none" fill-rule="evenodd"/></g></svg>